<svg width="138" height="45" viewBox="0 0 138 45" fill="none" xmlns="http://www.w3.org/2000/svg">
<g id="01">
<g id="Group">
<path id="Vector" d="M12.6958 0.961426V1.15309L11.8917 1.34475V9.8369L12.6958 10.0286V10.2202H8.88341V10.0286L9.6876 9.8369V2.59793L6.53046 10.3529H6.12834L2.03297 2.59793V9.6305L3.10522 10.0286V10.2202H0.558655V10.0286L1.6309 9.6305V1.34475L0.826704 1.15309V0.961426H2.49463C2.7478 0.961426 2.97118 0.990912 3.14989 1.04988C3.3286 1.10886 3.50733 1.18257 3.64136 1.28578C3.79028 1.38898 3.90942 1.50693 4.01367 1.63962C4.11791 1.77231 4.20727 1.93449 4.29662 2.09666L7.21549 7.62541L9.44932 2.09666C9.52378 1.905 9.59827 1.74282 9.70251 1.61013C9.79187 1.47744 9.91097 1.3595 10.045 1.25629C10.179 1.15309 10.3429 1.07937 10.5365 1.03514C10.7301 0.990911 10.9683 0.961426 11.2662 0.961426H12.6958Z" fill="#B1B1B1"/>
<path id="Vector_2" d="M17.4614 3.42358C18.0124 3.42358 18.5188 3.4973 18.9506 3.65948C19.3825 3.82165 19.7548 4.05755 20.0676 4.35241C20.3803 4.66202 20.6037 5.0306 20.7675 5.45816C20.9313 5.88572 21.0058 6.38699 21.0058 6.93249C21.0058 7.47799 20.9313 7.97927 20.7675 8.40682C20.6037 8.83438 20.3654 9.20296 20.0676 9.51257C19.7548 9.82218 19.3825 10.0433 18.9506 10.2055C18.5188 10.3677 18.0124 10.4414 17.4614 10.4414C16.9104 10.4414 16.4041 10.3677 15.9722 10.2055C15.5403 10.0433 15.168 9.80744 14.8553 9.51257C14.5425 9.20296 14.3191 8.83438 14.1553 8.40682C13.9915 7.97927 13.9171 7.47799 13.9171 6.93249C13.9171 6.38699 13.9915 5.88572 14.1553 5.45816C14.3191 5.0306 14.5574 4.66202 14.8553 4.35241C15.168 4.0428 15.5403 3.82165 15.9722 3.65948C16.4041 3.4973 16.8955 3.42358 17.4614 3.42358ZM17.4614 10.1908C17.6103 10.1908 17.7593 10.1465 17.9231 10.0433C18.072 9.94013 18.206 9.77795 18.3251 9.52732C18.4443 9.27668 18.5485 8.95233 18.623 8.53951C18.6975 8.11196 18.7421 7.5812 18.7421 6.94724C18.7421 6.29853 18.6975 5.76777 18.623 5.35496C18.5485 4.94214 18.4443 4.60305 18.3251 4.36716C18.206 4.13126 18.072 3.95434 17.9231 3.85114C17.7741 3.74794 17.6252 3.70371 17.4614 3.70371C17.3125 3.70371 17.1636 3.74794 16.9998 3.85114C16.8508 3.95434 16.7168 4.11652 16.5976 4.36716C16.4785 4.61779 16.3743 4.94214 16.2998 5.35496C16.2254 5.78251 16.1807 6.31327 16.1807 6.94724C16.1807 7.59594 16.2254 8.1267 16.2998 8.53951C16.3743 8.95233 16.4785 9.29142 16.5976 9.52732C16.7168 9.76321 16.8508 9.94013 16.9998 10.0433C17.1487 10.1318 17.2976 10.1908 17.4614 10.1908Z" fill="#B1B1B1"/>
<path id="Vector_3" d="M27.5138 0.961426C28.318 0.961426 28.7201 1.35949 28.7201 2.15563V9.85165L29.5243 10.0433V10.235H28.318C27.9904 10.235 27.7372 10.1907 27.5436 10.0875C27.35 9.98434 27.1862 9.86639 27.0819 9.74844C26.9479 9.60101 26.8437 9.42409 26.7841 9.24717C26.665 9.48306 26.516 9.67473 26.3373 9.85165C26.1884 9.99908 25.9799 10.1318 25.7267 10.2645C25.4735 10.3971 25.1757 10.4561 24.8332 10.4561C24.446 10.4561 24.0886 10.3824 23.7609 10.235C23.4184 10.0875 23.1355 9.86639 22.8972 9.57152C22.6589 9.27666 22.4505 8.90807 22.3164 8.48052C22.1675 8.03822 22.1079 7.53694 22.1079 6.94721C22.1079 6.35748 22.1824 5.85621 22.3164 5.41391C22.4653 4.97161 22.6589 4.61777 22.927 4.3229C23.1801 4.02804 23.4929 3.80689 23.8503 3.65945C24.2077 3.51202 24.6098 3.4383 25.0566 3.4383C25.2949 3.4383 25.5033 3.46779 25.6969 3.51202C25.8905 3.57099 26.0543 3.62997 26.1884 3.70368C26.3522 3.7774 26.4862 3.86586 26.6054 3.96906V1.38898L25.8012 1.19732V1.00566H27.5138V0.961426ZM26.5756 4.35239C26.4713 4.24918 26.382 4.16073 26.2629 4.08701C26.1586 4.01329 26.0544 3.95432 25.9352 3.89535C25.8161 3.83637 25.697 3.82163 25.5629 3.82163C25.3991 3.82163 25.2353 3.86586 25.0864 3.95432C24.9374 4.04278 24.8183 4.19021 24.6991 4.41136C24.5949 4.63251 24.5056 4.95686 24.446 5.35493C24.3864 5.76775 24.3567 6.28376 24.3567 6.93247C24.3567 7.56643 24.3864 8.0677 24.446 8.46577C24.5056 8.86384 24.58 9.17345 24.6843 9.3946C24.7736 9.61575 24.8779 9.77793 25.0119 9.85165C25.1311 9.92536 25.2502 9.96959 25.3693 9.96959C25.5778 9.96959 25.7565 9.91062 25.9054 9.80742C26.0543 9.70421 26.1735 9.57152 26.2777 9.43883C26.3969 9.27666 26.5011 9.09974 26.5905 8.90807V4.35239H26.5756Z" fill="#B1B1B1"/>
<path id="Vector_4" d="M34.0066 10.4563C32.8599 10.4563 31.9664 10.1467 31.3409 9.52747C30.7005 8.90825 30.3878 8.03839 30.3878 6.94738C30.3878 6.40188 30.4622 5.90061 30.626 5.47305C30.7899 5.0455 31.0133 4.67691 31.2962 4.3673C31.5792 4.05769 31.9217 3.83655 32.3386 3.67437C32.7407 3.51219 33.1875 3.43848 33.6789 3.43848C34.1853 3.43848 34.6321 3.51219 35.0193 3.64488C35.4214 3.79232 35.749 3.98398 36.0319 4.21987C36.3149 4.45577 36.5234 4.73589 36.6723 5.06024C36.8212 5.3846 36.8957 5.72369 36.8957 6.09227C36.8957 6.21022 36.8957 6.32817 36.8808 6.41663C36.8659 6.50509 36.851 6.59355 36.8361 6.66726C36.8063 6.75572 36.7914 6.82944 36.7616 6.88841C36.3744 6.96213 35.9575 7.03585 35.5107 7.08008C35.1384 7.13905 34.7065 7.18328 34.2151 7.21276C33.7236 7.24225 33.2173 7.27174 32.6812 7.27174C32.6812 7.81724 32.7258 8.27429 32.8003 8.64287C32.8748 9.01145 32.9939 9.30632 33.1279 9.51272C33.2768 9.73387 33.4407 9.88131 33.6343 9.96977C33.8279 10.0582 34.0513 10.1025 34.2747 10.1025C34.5427 10.1025 34.7959 10.0582 35.0341 9.95502C35.2724 9.85182 35.4809 9.73387 35.6447 9.5717C35.8234 9.40952 35.9575 9.21786 36.0617 9.01145C36.1659 8.80505 36.2106 8.59864 36.2106 8.37749H36.5383C36.5383 8.64287 36.4787 8.8935 36.3596 9.14414C36.2404 9.39478 36.0617 9.61593 35.8383 9.80759C35.6149 9.99925 35.3469 10.1467 35.0341 10.2646C34.7363 10.3973 34.3938 10.4563 34.0066 10.4563ZM32.6663 6.93264C32.9641 6.93264 33.2322 6.93264 33.4705 6.9179C33.7087 6.90316 33.9023 6.88841 34.0661 6.87367C34.2597 6.85893 34.4087 6.82944 34.5427 6.81469C34.5576 6.72623 34.5874 6.62303 34.6023 6.51983C34.6172 6.41663 34.6321 6.31342 34.647 6.19548C34.6619 6.07753 34.6618 5.94484 34.6618 5.81215C34.6618 5.41408 34.632 5.07499 34.5725 4.80961C34.5129 4.54423 34.4384 4.32307 34.3342 4.14616C34.2448 3.98398 34.1406 3.85129 34.0066 3.79232C33.8725 3.73334 33.7683 3.68911 33.6492 3.68911C33.53 3.68911 33.4109 3.73334 33.2918 3.8218C33.1726 3.91026 33.0684 4.07244 32.9641 4.29359C32.8748 4.52948 32.7854 4.85383 32.7258 5.28139C32.6663 5.70895 32.6663 6.25445 32.6663 6.93264Z" fill="#B1B1B1"/>
<path id="Vector_5" d="M42.525 3.8805C42.2569 3.8805 42.0187 3.93948 41.8102 4.04268C41.6017 4.14588 41.4229 4.27857 41.274 4.41126C41.1102 4.57344 40.9762 4.75036 40.8421 4.94202V9.85155L41.6463 10.0432V10.2349H37.8935V10.0432L38.6977 9.85155V4.01319L37.8935 3.82153V3.62987H39.0998C39.4125 3.62987 39.6657 3.68884 39.8741 3.79205C40.0677 3.89525 40.2316 4.01319 40.3507 4.13114C40.4847 4.27857 40.589 4.44075 40.6486 4.61767C40.7826 4.42601 40.9464 4.24909 41.14 4.08691C41.3038 3.95422 41.5123 3.83628 41.7655 3.71833C42.0187 3.60038 42.3016 3.55615 42.6441 3.55615C43.1207 3.55615 43.4781 3.6741 43.7164 3.8805C43.9546 4.10165 44.0589 4.41127 44.0589 4.80933C44.0589 5.1042 43.9695 5.35484 43.7908 5.53176C43.6121 5.70868 43.3589 5.79714 43.0611 5.79714C42.9866 5.79714 42.9271 5.79714 42.8526 5.79714C42.7781 5.79714 42.7335 5.78239 42.6888 5.78239C42.6292 5.76765 42.5696 5.76765 42.525 5.73816V3.8805Z" fill="#B1B1B1"/>
<path id="Vector_6" d="M49.8222 5.60569C49.8222 5.31082 49.7924 5.04545 49.7328 4.8243C49.6732 4.60315 49.5988 4.42623 49.4946 4.29354C49.4052 4.1461 49.301 4.0429 49.1669 3.98392C49.0478 3.92495 48.9286 3.88072 48.8095 3.88072C48.601 3.88072 48.4223 3.9397 48.2734 4.0429C48.1245 4.1461 47.9905 4.27879 47.9011 4.41148C47.782 4.57366 47.6926 4.75058 47.6032 4.94224V9.85177L48.4074 10.0434V10.2351H44.6546V10.0434L45.4588 9.85177V4.01341L44.6546 3.82175V3.63008H45.8609C46.1736 3.63008 46.4268 3.68906 46.6352 3.79226C46.8288 3.89547 46.9927 4.01341 47.1118 4.13136C47.2458 4.27879 47.3501 4.44097 47.4096 4.61789C47.5288 4.39674 47.6777 4.19033 47.8564 4.01341C48.0053 3.86598 48.2138 3.73329 48.4521 3.6006C48.6904 3.46791 49.0031 3.40894 49.3605 3.40894C49.7477 3.40894 50.1052 3.46791 50.4179 3.6006C50.7455 3.71855 51.0136 3.89547 51.2369 4.08713C51.4603 4.29354 51.6391 4.51468 51.7731 4.78006C51.9071 5.04544 51.9667 5.31082 51.9667 5.59095V9.83702L52.7708 10.0287V10.2203H51.0285C50.2243 10.2203 49.8222 9.82228 49.8222 9.02614V5.60569Z" fill="#B1B1B1"/>
<path id="Vector_7" d="M1.97357 19.5528V19.0073H12.3237V19.5528L10.1494 20.0983V31.2295H17.9529V20.0983L15.7787 19.5528V19.0073H26.1288V19.5528L23.9545 20.0983V43.0979L26.1288 43.6434V44.1889H15.7787V43.6287L17.9529 43.0832V32.1289H10.1494V43.0832L12.3237 43.6287V44.1742H1.97357V43.6287L4.14783 43.0832V20.0836L1.97357 19.5528Z" fill="#B1B1B1"/>
<path id="Vector_8" d="M38.9955 25.6565C40.4996 25.6565 41.8399 25.8776 43.0313 26.3052C44.2227 26.7328 45.2204 27.3667 46.0544 28.1923C46.8884 29.018 47.5287 30.0205 47.9606 31.2C48.3925 32.3794 48.6159 33.7063 48.6159 35.1954C48.6159 36.6845 48.3925 38.0114 47.9606 39.1909C47.5287 40.3703 46.8884 41.3581 46.0544 42.1838C45.2204 43.0094 44.2078 43.6433 43.0313 44.0709C41.8399 44.4985 40.4996 44.7196 38.9955 44.7196C37.4914 44.7196 36.1511 44.4985 34.9597 44.0709C33.7683 43.6433 32.7706 43.0094 31.9366 42.1838C31.1026 41.3581 30.4623 40.3556 30.0304 39.1909C29.5985 38.0114 29.3751 36.6845 29.3751 35.1954C29.3751 33.7063 29.5985 32.3794 30.0304 31.2C30.4623 30.0205 31.1026 29.0327 31.9366 28.1923C32.7706 27.352 33.7832 26.7328 34.9597 26.3052C36.1511 25.8776 37.4914 25.6565 38.9955 25.6565ZM38.9955 43.9824C39.4125 43.9824 39.8146 43.8497 40.2316 43.5844C40.6486 43.319 41.006 42.8619 41.3336 42.1985C41.6612 41.535 41.9293 40.6357 42.1378 39.5005C42.3463 38.3652 42.4505 36.9204 42.4505 35.1659C42.4505 33.4115 42.3463 31.9666 42.1378 30.8314C41.9293 29.6962 41.6612 28.7968 41.3336 28.1334C41.006 27.4699 40.6337 27.0129 40.2316 26.7475C39.8295 26.4821 39.4125 26.3494 38.9955 26.3494C38.5785 26.3494 38.1764 26.4821 37.7595 26.7475C37.3425 27.0129 36.985 27.4699 36.6574 28.1334C36.3298 28.7968 36.0617 29.6962 35.8533 30.8314C35.6448 31.9666 35.5405 33.4115 35.5405 35.1659C35.5405 36.9204 35.6448 38.3652 35.8533 39.5005C36.0617 40.6357 36.3298 41.535 36.6574 42.1985C36.985 42.8619 37.3574 43.319 37.7595 43.5844C38.1764 43.8497 38.5785 43.9824 38.9955 43.9824Z" fill="#B1B1B1"/>
<path id="Vector_9" d="M75.8241 31.5833C75.8241 30.7281 75.7496 29.991 75.6007 29.416C75.4518 28.841 75.273 28.3545 75.0348 27.9859C74.7965 27.6173 74.5433 27.3519 74.2753 27.175C73.9923 27.0128 73.7243 26.9244 73.4562 26.9244C72.9945 26.9244 72.5924 27.0718 72.235 27.3667C71.8776 27.6615 71.5798 28.0006 71.3117 28.3545C71.0288 28.782 70.7607 29.2686 70.5522 29.7846V43.083L72.7414 43.6285V44.174H62.5848V43.6285L64.7591 43.083V31.5833C64.7591 30.7281 64.6846 29.991 64.5357 29.416C64.3868 28.841 64.2081 28.3545 63.9698 27.9859C63.7315 27.6173 63.4784 27.3519 63.2103 27.175C62.9274 27.0128 62.6593 26.9244 62.3912 26.9244C61.9296 26.9244 61.5275 27.0718 61.1701 27.3667C60.8127 27.6615 60.5148 28.0006 60.2467 28.3545C59.9489 28.782 59.6958 29.2686 59.4873 29.7846V43.083L61.6615 43.6285V44.174H51.505V43.6285L53.6793 43.083V27.2782L51.505 26.7327V26.1872H54.7664C55.6153 26.1872 56.3152 26.3346 56.8513 26.6148C57.4023 26.8949 57.8193 27.2192 58.147 27.5436C58.5044 27.9564 58.7724 28.3987 58.9511 28.8705C59.2639 28.266 59.6511 27.7353 60.1127 27.2487C60.5297 26.8359 61.0361 26.4673 61.6318 26.1282C62.2423 25.7891 62.972 25.627 63.8507 25.627C65.2952 25.627 66.5611 25.9513 67.6035 26.5853C68.6609 27.2192 69.4651 28.0449 70.0161 29.0474C70.3288 28.4282 70.716 27.8679 71.1777 27.3519C71.5947 26.9244 72.101 26.5263 72.6967 26.1725C73.3073 25.8186 74.037 25.627 74.9156 25.627C75.9134 25.627 76.8069 25.7891 77.6409 26.0987C78.46 26.4083 79.1748 26.8359 79.7705 27.3814C80.3662 27.9269 80.8278 28.5461 81.1555 29.2686C81.4831 29.991 81.6469 30.7576 81.6469 31.5685V43.0683L83.8212 43.6138V44.1593H79.1003C76.9261 44.1593 75.8389 43.083 75.8389 40.9305V31.5833H75.8241Z" fill="#B1B1B1"/>
<path id="Vector_10" d="M95.7946 44.705C92.697 44.705 90.2845 43.8646 88.5719 42.1691C86.8592 40.4736 85.9955 38.1589 85.9955 35.1808C85.9955 33.6917 86.2189 32.3648 86.6507 31.1853C87.0826 30.0059 87.6932 29.0181 88.4676 28.1777C89.242 27.3521 90.1802 26.7181 91.2823 26.2905C92.3843 25.863 93.5905 25.6418 94.8862 25.6418C96.2413 25.6418 97.4625 25.8335 98.5348 26.2168C99.607 26.6002 100.53 27.1162 101.275 27.7649C102.02 28.4136 102.6 29.1802 103.002 30.0501C103.405 30.9199 103.598 31.8488 103.598 32.8366C103.598 33.1757 103.583 33.4705 103.539 33.7212C103.494 33.9718 103.464 34.193 103.405 34.3846C103.33 34.6205 103.27 34.8269 103.226 34.9891C102.154 35.2103 101.037 35.3872 99.8453 35.5346C98.8326 35.682 97.6561 35.8 96.3307 35.9179C95.0053 36.0211 93.6054 36.0801 92.1609 36.0801C92.1609 37.5692 92.2651 38.8076 92.4885 39.7954C92.7119 40.7832 93.0097 41.5794 93.3969 42.1691C93.7841 42.7588 94.2458 43.1716 94.7819 43.4223C95.318 43.6729 95.8988 43.8056 96.5243 43.8056C97.254 43.8056 97.9391 43.6729 98.5794 43.4075C99.2198 43.1422 99.7708 42.7883 100.247 42.346C100.724 41.9037 101.096 41.4024 101.379 40.8422C101.662 40.282 101.796 39.707 101.796 39.132H102.705C102.705 39.8544 102.541 40.5473 102.213 41.2108C101.886 41.889 101.424 42.4787 100.813 42.9947C100.203 43.5107 99.4879 43.9236 98.639 44.2332C97.7753 44.5428 96.8222 44.705 95.7946 44.705ZM92.1609 35.1808C92.98 35.1808 93.7097 35.166 94.3351 35.1218C94.9606 35.0776 95.4968 35.0481 95.9286 35.0038C96.435 34.9596 96.8668 34.9006 97.2392 34.8269C97.2838 34.591 97.3434 34.3257 97.4179 34.0308C97.4625 33.7654 97.5072 33.4705 97.537 33.1462C97.5668 32.8218 97.5966 32.4827 97.5966 32.1289C97.5966 31.0526 97.5072 30.1533 97.3434 29.4161C97.1795 28.679 96.9562 28.0892 96.703 27.6322C96.4498 27.1751 96.152 26.8508 95.8393 26.6591C95.5116 26.4675 95.184 26.3643 94.8712 26.3643C94.5585 26.3643 94.2309 26.4822 93.9033 26.7034C93.5756 26.9393 93.2927 27.3668 93.0395 28.0008C92.7864 28.6347 92.5779 29.5341 92.3992 30.6841C92.2503 31.834 92.1609 33.3379 92.1609 35.1808Z" fill="#B1B1B1"/>
</g>
<g id="Group_2">
<path id="Vector_11" d="M121.424 43.8055V29.2244L108.408 19.022V43.8055H121.424Z" fill="#B1B1B1"/>
</g>
<g id="Group_3">
<path id="Vector_12" d="M137.523 43.8055V29.2244L124.715 19.022V43.8055H137.523Z" fill="#B1B1B1"/>
</g>
</g>
</svg>
