<svg width="108" height="106" viewBox="0 0 108 106" fill="none" xmlns="http://www.w3.org/2000/svg">
<g id="02" style="mix-blend-mode:multiply">
<g id="Group">
<path id="Vector" d="M53.8964 104.944C82.9627 104.944 106.526 81.6163 106.526 52.8407C106.526 24.0651 82.9627 0.737793 53.8964 0.737793C24.8301 0.737793 1.26724 24.0651 1.26724 52.8407C1.26724 81.6163 24.8301 104.944 53.8964 104.944Z" fill="white"/>
<path id="Vector_2" d="M53.8965 105.681C24.4694 105.681 0.522705 81.9733 0.522705 52.8405C0.522705 23.7077 24.4694 0.000488281 53.8965 0.000488281C83.3236 0.000488281 107.27 23.7077 107.27 52.8405C107.27 81.9733 83.3236 105.681 53.8965 105.681ZM53.8965 1.47482C25.2885 1.47482 2.01193 24.5186 2.01193 52.8405C2.01193 81.1625 25.2885 104.206 53.8965 104.206C82.5045 104.206 105.781 81.1625 105.781 52.8405C105.781 24.5186 82.5045 1.47482 53.8965 1.47482Z" fill="#B1B1B1"/>
</g>
<g id="Group_2">
<path id="Vector_3" d="M61.4022 6.03049C61.7596 6.05997 62.0724 6.07472 62.3255 6.07472L62.2957 6.31061C61.8788 6.36958 61.5214 6.67919 61.2384 7.26893L57.694 14.2867L57.5898 14.272L57.5004 14.2573L55.2517 6.42856C55.1028 5.91254 54.8496 5.63242 54.4922 5.58819L54.522 5.35229C54.8496 5.41127 55.2815 5.4555 55.8176 5.51447C56.5176 5.57344 57.0388 5.61767 57.3813 5.61767L57.3515 5.85357C57.0388 5.83882 56.8154 5.85357 56.6814 5.8978C56.5473 5.94203 56.4729 6.05997 56.458 6.20741C56.4431 6.3401 56.4729 6.53176 56.5473 6.7824L58.2004 12.7682L60.6576 7.8734C60.8661 7.47533 60.9703 7.15098 61.0001 6.91509C61.0299 6.66445 60.9554 6.47279 60.7916 6.3401C60.6278 6.20741 60.3598 6.13369 60.0023 6.08946L60.0321 5.85357C60.464 5.92728 60.9257 5.98626 61.4022 6.03049Z" fill="#B1B1B1"/>
<path id="Vector_4" d="M71.4099 9.14138C71.261 9.14138 71.1419 9.20035 71.0525 9.3183C70.9632 9.43625 70.8589 9.62791 70.7547 9.90803L68.6251 15.5105C68.5209 15.7906 68.4613 16.0118 68.4613 16.1592C68.4613 16.3066 68.506 16.4246 68.6102 16.513C68.7145 16.6015 68.908 16.7047 69.1761 16.8226L69.0868 17.0438C68.7442 16.8964 68.2677 16.7047 67.6571 16.4688C67.0018 16.2182 66.5104 16.056 66.1828 15.9528L66.2721 15.7316C66.5551 15.8201 66.7636 15.8643 66.8976 15.8643C67.0316 15.8643 67.1657 15.8054 67.255 15.6874C67.3444 15.5695 67.4486 15.3778 67.5529 15.0977L69.6824 9.49522C69.7867 9.2151 69.8463 8.99395 69.8463 8.84651C69.8463 8.69908 69.8016 8.58113 69.6973 8.49267C69.5931 8.40421 69.3995 8.30101 69.1314 8.18306L69.2208 7.96191C69.5335 8.0946 70.0101 8.28627 70.6653 8.5369C71.2759 8.7728 71.7674 8.93497 72.1248 9.03818L72.0354 9.25933C71.7674 9.17087 71.5589 9.12664 71.4099 9.14138Z" fill="#B1B1B1"/>
<path id="Vector_5" d="M84.6639 16.9406C84.515 16.9111 84.3661 16.9553 84.2321 17.0438C84.098 17.1322 83.9342 17.3092 83.7555 17.5598L79.4368 23.3539L79.2134 23.1917L79.7942 13.874L75.9669 19.0046C75.7882 19.2553 75.669 19.4617 75.6095 19.6239C75.5499 19.786 75.5797 19.9335 75.6541 20.0809C75.7286 20.2283 75.9073 20.3905 76.1605 20.5969L76.0115 20.7886C75.7882 20.5969 75.4605 20.3463 75.0287 20.0219C74.6415 19.7418 74.3287 19.5207 74.0905 19.388L74.2394 19.1963C74.4777 19.3585 74.6712 19.4469 74.8202 19.4617C74.9691 19.4912 75.118 19.4469 75.252 19.3585C75.3861 19.2553 75.5499 19.0931 75.7286 18.8425L79.2432 14.1246C79.4219 13.874 79.541 13.6823 79.5857 13.5496C79.6304 13.4169 79.6155 13.2842 79.541 13.1663C79.4666 13.0483 79.3176 12.9009 79.0794 12.7092L79.2283 12.5176C79.4219 12.6945 79.7197 12.9304 80.1218 13.2105C80.4197 13.4317 80.6728 13.6086 80.9111 13.7413L80.4345 21.5552L83.5321 17.3976C83.7108 17.147 83.8449 16.9406 83.8895 16.7784C83.9342 16.6162 83.9193 16.4688 83.8449 16.3214C83.7704 16.1739 83.5917 15.997 83.3385 15.8053L83.4875 15.6137C83.7108 15.8053 84.0385 16.056 84.4703 16.3803C84.8575 16.6604 85.1703 16.8816 85.4086 17.0143L85.2596 17.206C85.0065 17.0585 84.8129 16.9553 84.6639 16.9406Z" fill="#B1B1B1"/>
<path id="Vector_6" d="M89.653 23.5898C90.0402 23.3096 90.4423 23 90.8741 22.6167C91.2464 23.1769 91.9017 24.1058 92.8399 25.4179C93.7781 26.7153 94.4483 27.6294 94.8504 28.1602C94.344 28.4551 93.9122 28.7204 93.525 28.9858C93.1973 29.2217 92.9293 29.4281 92.7357 29.5903L92.5719 29.3691C93.0484 28.9563 93.376 28.6172 93.5696 28.3666C93.7632 28.116 93.8377 27.8506 93.8228 27.5705C93.8079 27.2903 93.6292 26.9512 93.3463 26.5384L92.9591 26.0077L87.3149 29.9884C87.0468 30.18 86.8532 30.3569 86.7639 30.4896C86.6745 30.6223 86.6447 30.7845 86.7043 30.9614C86.749 31.1236 86.883 31.3595 87.0766 31.6544L86.883 31.8018C86.6596 31.4479 86.3171 30.9467 85.8704 30.3422C85.3938 29.6787 85.0364 29.207 84.7981 28.9121L84.9917 28.7647C85.2151 29.0448 85.3938 29.2364 85.5427 29.3397C85.6916 29.4429 85.8406 29.4723 86.0044 29.4281C86.1682 29.3839 86.3916 29.2659 86.6596 29.0743L92.3038 25.0936L91.9166 24.5628C91.6188 24.15 91.3507 23.8994 91.0975 23.7814C90.8444 23.6635 90.5614 23.6487 90.2636 23.7519C89.9657 23.8551 89.5338 24.0468 88.9828 24.3564L88.819 24.1353C89.0424 24.0173 89.3105 23.8404 89.653 23.5898Z" fill="#B1B1B1"/>
<path id="Vector_7" d="M92.5119 44.0534L92.2736 44.1272C92.1843 43.8028 92.0651 43.39 91.8864 42.8887C91.663 42.24 91.4843 41.7535 91.3503 41.4291L91.5886 41.3554C91.6928 41.6355 91.812 41.842 91.9013 41.9452C92.0055 42.0484 92.1396 42.0778 92.2885 42.0189C92.4225 41.9746 92.5863 41.8714 92.7799 41.7093L94.433 40.3676L93.4948 37.6106L92.1098 37.5516C91.663 37.5222 91.3205 37.5516 91.0822 37.6401C90.844 37.7286 90.695 37.8613 90.6355 38.0529C90.5908 38.2446 90.6206 38.5247 90.7248 38.8638L90.4865 38.9375C90.3674 38.4952 90.2185 38.0529 90.0696 37.6106C89.9504 37.2715 89.8462 36.9914 89.7419 36.7703L89.9802 36.6965C90.1887 37.0504 90.6355 37.242 91.2907 37.2568L99.2134 37.6106L99.273 37.7875L92.9587 42.9919C92.5715 43.3605 92.4225 43.6996 92.5119 44.0534ZM97.6795 37.7875L93.7777 37.6254L94.6564 40.2202L97.6795 37.7875Z" fill="#B1B1B1"/>
<path id="Vector_8" d="M93.599 55.3323C93.748 55.2734 93.8224 55.1997 93.8224 55.0964C93.8224 55.0375 93.8075 54.9932 93.7777 54.949C93.748 54.9048 93.6884 54.8163 93.599 54.6984C93.3757 54.4183 93.2118 54.1234 93.0927 53.8285C92.9736 53.5337 92.914 53.1946 92.914 52.826C92.8991 52.0004 93.0629 51.2927 93.3906 50.6882C93.7331 50.0837 94.2096 49.6267 94.8649 49.3023C95.5052 48.978 96.2797 48.8158 97.1881 48.8011C98.1263 48.7863 98.9454 48.9337 99.6453 49.2581C100.345 49.5825 100.896 50.0248 101.283 50.6145C101.671 51.2042 101.879 51.8677 101.879 52.6048C101.879 52.9292 101.849 53.2241 101.79 53.4747C101.73 53.7253 101.641 53.9465 101.537 54.1381C101.432 54.3298 101.298 54.5509 101.12 54.7868C101.045 54.89 101 54.9785 101 55.0375C101 55.1849 101.254 55.2881 101.745 55.3323V55.6125C101.224 55.583 100.286 55.583 98.9454 55.6125V55.3323C99.3772 55.2586 99.7346 55.1702 100.018 55.0817C100.301 54.9932 100.539 54.8606 100.747 54.6984C101.03 54.4625 101.269 54.1529 101.432 53.7696C101.596 53.3862 101.671 53.0029 101.671 52.5901C101.656 52.0593 101.477 51.6023 101.12 51.2042C100.762 50.8061 100.256 50.5113 99.6155 50.2901C98.9603 50.0837 98.2156 49.9805 97.3519 49.9953C96.369 50.01 95.5797 50.128 94.9542 50.3491C94.3288 50.5703 93.882 50.8946 93.5842 51.3222C93.2863 51.7497 93.1523 52.2952 93.1672 52.9587C93.1821 53.4452 93.3161 53.858 93.5693 54.2119C93.6735 54.3593 93.7629 54.4477 93.8671 54.492C93.9565 54.5362 94.0905 54.5509 94.2543 54.5509L95.4308 54.5362C95.7733 54.5362 96.0116 54.492 96.1754 54.433C96.3243 54.374 96.4435 54.2561 96.4881 54.0792C96.5477 53.917 96.5775 53.6516 96.5775 53.2978H96.8158C96.8009 53.6958 96.786 54.2561 96.8009 55.008C96.8158 55.5682 96.8307 55.9958 96.8604 56.2612H96.6222C96.6073 56.0695 96.5626 55.9368 96.5179 55.8631C96.4732 55.7894 96.369 55.7304 96.235 55.7009C96.1009 55.6714 95.8776 55.6567 95.5648 55.6714L93.1523 55.7157V55.4798C93.2863 55.4208 93.4501 55.3913 93.599 55.3323Z" fill="#B1B1B1"/>
<path id="Vector_9" d="M91.8273 67.8788C91.3954 67.7461 90.8891 67.6134 90.3083 67.4955C90.5019 66.9794 90.7848 66.1096 91.1869 64.8711C91.6635 63.3968 92.006 62.2763 92.2145 61.5244L92.4528 61.5981C92.3783 61.8783 92.3485 62.0847 92.3485 62.2321C92.3634 62.3795 92.423 62.4827 92.5421 62.5712C92.6612 62.6596 92.8697 62.7481 93.1527 62.8366L98.916 64.6353C99.2138 64.7237 99.4223 64.7679 99.5712 64.7679C99.7202 64.7679 99.8393 64.709 99.9287 64.591C100.018 64.4731 100.107 64.2814 100.212 64.016L100.45 64.0898C100.182 64.8417 99.8244 65.9474 99.3479 67.4217C98.9904 68.5422 98.7373 69.3531 98.6181 69.8396C98.1267 69.6332 97.6799 69.4563 97.2629 69.3384C96.9651 69.2499 96.7119 69.1762 96.5332 69.1467L96.6226 68.8813C97.1438 68.9845 97.5459 69.0288 97.814 69.0288C98.082 69.0288 98.3054 68.9403 98.4841 68.7634C98.6628 68.6012 98.8117 68.3063 98.9458 67.9083L99.2436 66.95C99.333 66.6698 99.3776 66.4634 99.3628 66.3307C99.3479 66.198 99.3032 66.0801 99.184 65.9916C99.0649 65.9032 98.8713 65.8147 98.5735 65.7263L95.8333 64.8711L95.595 65.6378C95.4759 66.0211 95.5057 66.316 95.6993 66.5224C95.8929 66.7288 96.1013 66.8762 96.3396 66.9794C96.5779 67.0826 96.7268 67.1564 96.7864 67.1858L96.697 67.4512C96.3247 67.3038 95.9673 67.1711 95.6099 67.0679L95.0589 66.9057C94.6717 66.7878 94.1058 66.6256 93.391 66.4634L93.4803 66.198C93.5399 66.2128 93.7335 66.2423 94.0611 66.316C94.3887 66.375 94.6717 66.3455 94.8951 66.2275C95.1185 66.1096 95.2674 65.8884 95.3716 65.5788L95.6099 64.8122L92.8102 63.9423C92.5123 63.8539 92.3038 63.8096 92.1549 63.8096C92.006 63.8096 91.8868 63.8686 91.8124 63.9866C91.723 64.1045 91.6337 64.2962 91.5443 64.5763L91.2763 65.4166C91.1273 65.9032 91.0678 66.2865 91.1273 66.5666C91.172 66.8615 91.3209 67.0974 91.5741 67.3038C91.8273 67.4955 92.2145 67.7166 92.7357 67.9525L92.6464 68.2179C92.4676 68.0852 92.1847 67.9967 91.8273 67.8788Z" fill="#B1B1B1"/>
<path id="Vector_10" d="M87.5826 85.969C87.6422 85.8363 87.6273 85.7036 87.5677 85.5709C87.5081 85.4382 87.3592 85.276 87.1358 85.0549L82.7575 80.912C82.5341 80.7056 82.3554 80.5729 82.2214 80.5139C82.0873 80.455 81.9533 80.455 81.8193 80.5139C81.6853 80.5729 81.5214 80.7056 81.313 80.912L81.1342 80.7498C81.4172 80.4992 81.7746 80.1306 82.2363 79.6736C82.7128 79.1723 83.0702 78.789 83.2936 78.5383L83.4723 78.7005C83.2787 78.9217 83.1596 79.0986 83.1 79.2165C83.0405 79.3492 83.0553 79.4819 83.1149 79.6146C83.1745 79.7473 83.3234 79.9095 83.5468 80.1306L87.9251 84.2735C88.1485 84.4799 88.3272 84.6126 88.4612 84.6715C88.5953 84.7305 88.7293 84.7305 88.8633 84.6715C88.9973 84.6126 89.1612 84.4799 89.3697 84.2735L89.5484 84.4357C89.2952 84.6568 88.9229 85.0254 88.4463 85.5267C87.9847 85.9984 87.6422 86.3818 87.4039 86.6619L87.2252 86.4997C87.4039 86.2786 87.523 86.1017 87.5826 85.969Z" fill="#B1B1B1"/>
<path id="Vector_11" d="M75.1774 94.9622C75.2668 94.8295 75.2816 94.6968 75.2519 94.5346C75.2221 94.3724 75.1178 94.166 74.954 93.8859L71.2607 87.679L71.499 87.5315L79.928 91.7039L76.6666 86.2194C76.5028 85.954 76.3688 85.7623 76.2348 85.6591C76.1007 85.5559 75.9518 85.5117 75.788 85.5264C75.6242 85.5412 75.4008 85.6296 75.1178 85.7771L74.9838 85.5707C75.2519 85.4527 75.6093 85.2463 76.0709 84.9809C76.4879 84.7303 76.8007 84.5386 77.024 84.3765L77.1432 84.5829C76.9049 84.7303 76.7411 84.8777 76.6666 85.0104C76.5773 85.1431 76.5624 85.2758 76.5922 85.438C76.622 85.6002 76.7262 85.8066 76.89 86.0867L79.8982 91.1436C80.0472 91.409 80.1812 91.5859 80.3003 91.6744C80.4195 91.7629 80.5386 91.8071 80.6875 91.7776C80.8216 91.7481 81.0301 91.6744 81.2832 91.5417L81.4024 91.7481C81.1641 91.8661 80.8365 92.043 80.4046 92.2936C80.0918 92.4705 79.8238 92.6475 79.6004 92.7949L72.5266 89.3007L75.1774 93.7532C75.3412 94.0186 75.4752 94.2103 75.6093 94.3135C75.7284 94.4167 75.8773 94.4609 76.056 94.4461C76.2348 94.4314 76.4581 94.3429 76.7411 94.1955L76.8602 94.4019C76.5922 94.5199 76.2347 94.7263 75.7731 94.9917C75.3561 95.2423 75.0434 95.4339 74.82 95.5961L74.7009 95.3897C74.9242 95.2275 75.088 95.0801 75.1774 94.9622Z" fill="#B1B1B1"/>
<path id="Vector_12" d="M66.9869 96.8936C67.0912 97.3507 67.2252 97.852 67.4039 98.3827C66.7337 98.5007 65.6168 98.7366 64.0382 99.0609C62.4597 99.4 61.3576 99.6506 60.7024 99.8128C60.6279 99.2378 60.5535 98.7366 60.4492 98.2795C60.3599 97.8815 60.2854 97.5571 60.196 97.3212L60.4641 97.2622C60.6577 97.8667 60.8364 98.2943 61.0002 98.5744C61.164 98.8545 61.3725 99.0314 61.6406 99.1199C61.9087 99.2084 62.2959 99.1936 62.7873 99.0904L63.4277 98.9577L61.9682 92.2495C61.8938 91.9251 61.8193 91.6893 61.7151 91.5566C61.6108 91.4239 61.4917 91.3354 61.313 91.3207C61.1343 91.2912 60.8662 91.3207 60.5088 91.3796L60.4641 91.1438C60.8811 91.0848 61.4768 90.9668 62.2214 90.8047C63.0107 90.6277 63.6064 90.495 63.9787 90.3918L64.0234 90.6277C63.6659 90.7162 63.4277 90.8047 63.2787 90.8931C63.1298 90.9816 63.0405 91.1143 63.0107 91.2764C62.9809 91.4386 62.9958 91.6893 63.0702 92.0136L64.5297 98.7218L65.1701 98.5891C65.6615 98.4859 66.0189 98.3385 66.2274 98.1468C66.4359 97.9552 66.555 97.7045 66.5848 97.3949C66.6146 97.0853 66.5997 96.6135 66.5252 95.9943L66.7933 95.9353C66.838 96.1712 66.8976 96.4956 66.9869 96.8936Z" fill="#B1B1B1"/>
<path id="Vector_13" d="M47.2247 92.7507C47.2694 92.2936 47.2843 91.7776 47.2843 91.2026C47.8353 91.2764 48.7586 91.3648 50.0691 91.4828C51.6179 91.6154 52.7944 91.7187 53.5986 91.7629L53.5837 91.9988C53.2858 91.984 53.0773 91.9988 52.9433 92.043C52.8093 92.0872 52.705 92.1609 52.6455 92.2936C52.5859 92.4263 52.5412 92.6475 52.5114 92.9423L51.9753 98.9134C51.9455 99.2083 51.9604 99.4294 51.9902 99.5768C52.02 99.7243 52.1093 99.8275 52.2434 99.8864C52.3774 99.9454 52.5859 100.004 52.8689 100.034L52.854 100.27C52.0647 100.181 50.8882 100.063 49.3394 99.9307C48.148 99.8275 47.2992 99.7685 46.7928 99.739C46.8971 99.223 46.9715 98.7512 47.0013 98.3237C47.0311 98.0141 47.046 97.7634 47.0311 97.5717L47.314 97.6012C47.3289 98.132 47.3587 98.5153 47.4332 98.7807C47.4928 99.0461 47.6268 99.2377 47.8353 99.3704C48.0289 99.5031 48.3565 99.5916 48.7735 99.6211L49.7862 99.7095C50.084 99.739 50.2925 99.7243 50.4265 99.6948C50.5606 99.6653 50.6648 99.5768 50.7244 99.4441C50.7839 99.3115 50.8286 99.0903 50.8584 98.7954L51.1116 95.9647L50.3074 95.891C49.9053 95.8615 49.6223 95.95 49.4585 96.1859C49.3096 96.4218 49.1905 96.6577 49.1458 96.9083C49.0862 97.1589 49.0564 97.3211 49.0415 97.3948L48.7586 97.3653C48.8182 96.9673 48.8628 96.5987 48.9075 96.2301L48.9522 95.6551C48.982 95.2423 49.0118 94.6821 49.0415 93.9449L49.3245 93.9744C49.3245 94.0334 49.3394 94.225 49.3394 94.5641C49.3543 94.9032 49.4287 95.1686 49.6074 95.3455C49.7713 95.5372 50.0244 95.6404 50.3521 95.6699L51.1562 95.7436L51.4094 92.8539C51.4392 92.559 51.4243 92.3379 51.3945 92.1904C51.3647 92.0577 51.2754 91.9545 51.1414 91.8956C51.0073 91.8366 50.7988 91.7924 50.5159 91.7629L49.6223 91.6892C49.116 91.6449 48.7288 91.6744 48.4459 91.7924C48.1778 91.8956 47.9693 92.102 47.8204 92.3821C47.6715 92.6622 47.5523 93.0898 47.4332 93.65L47.1502 93.6205C47.1502 93.3994 47.18 93.1045 47.2247 92.7507Z" fill="#B1B1B1"/>
<path id="Vector_14" d="M35.5047 87.281C35.7281 87.2368 35.9813 87.281 36.2493 87.3989C36.5621 87.5316 36.7706 87.7233 36.8897 87.9739C37.0088 88.2393 37.0237 88.6079 36.9493 89.0944L36.7259 90.3034C36.6514 90.7309 36.6068 91.0553 36.5919 91.3059C36.577 91.5418 36.6365 91.763 36.7408 91.9546C36.845 92.1463 37.0386 92.2937 37.3216 92.4117L38.3938 92.854L39.481 90.2886C39.6001 90.0085 39.6597 89.8021 39.6746 89.6547C39.6895 89.5072 39.6299 89.3893 39.5256 89.2861C39.4214 89.1829 39.2427 89.0797 38.9746 88.9617L39.064 88.7406C39.4065 88.9027 39.8682 89.1092 40.4787 89.3598C41.1191 89.6252 41.6106 89.8168 41.9382 89.92L41.8488 90.1412C41.5659 90.038 41.3574 89.9938 41.2234 89.979C41.0744 89.979 40.9553 90.0232 40.8659 90.1412C40.7617 90.2444 40.6574 90.4361 40.5383 90.7162L38.2002 96.2449C38.0811 96.525 38.0215 96.7314 38.0066 96.8789C37.9917 97.0263 38.0513 97.1443 38.1556 97.2475C38.2598 97.3507 38.4385 97.4539 38.7066 97.5866L38.6172 97.8077C38.3045 97.6603 37.8577 97.4539 37.262 97.2032C36.9642 97.0853 36.6514 96.9526 36.294 96.8052C35.9366 96.6577 35.6983 96.5693 35.5643 96.5103C34.9835 96.2597 34.5218 95.9795 34.1793 95.6404C33.8368 95.3014 33.6432 94.9475 33.5539 94.5642C33.4645 94.1809 33.5092 93.8123 33.673 93.4437C33.7921 93.1488 33.9857 92.8834 34.2538 92.6476C34.5218 92.4117 34.8644 92.2347 35.2813 92.1463C35.6983 92.0578 36.2047 92.0726 36.7557 92.2053L36.6217 92.1315C36.3089 91.9399 36.0706 91.7482 35.9217 91.5418C35.7728 91.3501 35.6685 91.129 35.6388 90.8931C35.5941 90.6572 35.609 90.3623 35.6685 90.0085L35.877 88.7553C35.9217 88.5047 35.9515 88.313 35.9515 88.1656C35.9515 88.0181 35.9366 87.9002 35.8919 87.8117C35.8473 87.7233 35.7728 87.6496 35.6685 87.6201C35.5494 87.5611 35.4303 87.5611 35.326 87.5906C35.2218 87.6201 35.0729 87.6938 34.8793 87.797L34.7601 87.6053C35.0282 87.4432 35.2813 87.3252 35.5047 87.281ZM36.2493 92.5296C35.8919 92.5738 35.609 92.7065 35.3856 92.9277C35.1622 93.1488 34.9686 93.4437 34.8048 93.827C34.5516 94.4315 34.4921 94.9622 34.6559 95.3898C34.8197 95.8174 35.2218 96.1712 35.8919 96.4513C36.1302 96.5545 36.3089 96.5988 36.4578 96.584C36.5919 96.584 36.711 96.525 36.8153 96.4071C36.9195 96.2891 37.0237 96.0975 37.128 95.8321L38.2896 93.0898L37.5301 92.7802C37.0386 92.5738 36.6068 92.4854 36.2493 92.5296Z" fill="#B1B1B1"/>
<path id="Vector_15" d="M23.8885 89.2861C24.0225 89.3303 24.1565 89.3008 24.2757 89.2271C24.3948 89.1534 24.5586 88.9912 24.7522 88.7553L28.4902 84.0374C28.6838 83.8015 28.8029 83.6099 28.8476 83.4772C28.8923 83.3445 28.8774 83.2118 28.8029 83.0939C28.7285 82.9759 28.5795 82.8137 28.3561 82.6221L28.5051 82.4304C28.788 82.6811 29.1752 83.0054 29.6964 83.4035C30.2475 83.831 30.6644 84.1406 30.9474 84.3323L30.7985 84.524C30.5602 84.3471 30.3666 84.2438 30.2326 84.2144C30.0985 84.1701 29.9645 84.1849 29.8454 84.2733C29.7262 84.3471 29.5624 84.5092 29.3688 84.7451L25.6309 89.463C25.4373 89.6989 25.3181 89.8905 25.2735 90.0232C25.2288 90.1559 25.2437 90.2886 25.3181 90.4066C25.3926 90.5245 25.5415 90.6867 25.7649 90.8783L25.616 91.07C25.3628 90.8489 24.9607 90.5245 24.4097 90.0822C23.8885 89.6841 23.4715 89.3745 23.1736 89.1681L23.3226 88.9765C23.5757 89.1386 23.7544 89.2418 23.8885 89.2861Z" fill="#B1B1B1"/>
<path id="Vector_16" d="M14.2684 78.7888C14.2088 78.1254 14.3577 77.4619 14.7002 76.828C15.0577 76.1792 15.5938 75.6043 16.3384 75.0588C17.0681 74.5427 17.7978 74.2036 18.5573 74.071C19.3168 73.9383 20.0168 73.9825 20.672 74.2331C21.3273 74.4838 21.8783 74.9113 22.3102 75.5158C22.7718 76.135 23.025 76.7837 23.0846 77.4472C23.1441 78.1106 22.9952 78.7741 22.6527 79.408C22.2953 80.0567 21.7592 80.6317 21.0145 81.1772C20.2848 81.6933 19.5551 82.0323 18.7956 82.165C18.051 82.2977 17.3362 82.2535 16.6809 82.0029C16.0256 81.7522 15.4746 81.3247 15.0428 80.7349C14.5811 80.101 14.3279 79.4523 14.2684 78.7888ZM16.5022 81.4131C17.0234 81.5163 17.6191 81.4721 18.2744 81.2657C18.9296 81.0593 19.5849 80.7202 20.2699 80.2189C20.955 79.7324 21.4911 79.2016 21.8634 78.6414C22.2506 78.0811 22.4591 77.5209 22.4889 76.9901C22.5336 76.4594 22.3995 75.9876 22.1166 75.5895C21.8038 75.1767 21.4017 74.9113 20.8656 74.8081C20.3444 74.7049 19.7487 74.7491 19.0934 74.9556C18.4382 75.162 17.7829 75.5011 17.0979 75.9876C16.4128 76.4741 15.8767 77.0049 15.5044 77.5799C15.1172 78.1401 14.9087 78.6856 14.8641 79.2311C14.8194 79.7619 14.9534 80.2337 15.2364 80.6317C15.5491 81.0445 15.9661 81.3099 16.5022 81.4131Z" fill="#B1B1B1"/>
<path id="Vector_17" d="M15.415 61.0379C15.5937 61.1706 15.7277 61.3918 15.8171 61.6866C15.9213 61.9962 15.9064 62.2911 15.7873 62.5417C15.6681 62.8071 15.3852 63.0578 14.9533 63.3084L13.8662 63.9129C13.4939 64.134 13.2109 64.3109 13.0173 64.4584C12.8237 64.6058 12.6897 64.7827 12.6152 64.9891C12.5408 65.1955 12.5408 65.4314 12.6301 65.7263L12.9726 66.832L15.6533 66.0064C15.9511 65.918 16.1447 65.8295 16.2638 65.741C16.383 65.6526 16.4425 65.5346 16.4574 65.4019C16.4723 65.2693 16.4276 65.0481 16.3532 64.768L16.5915 64.6943C16.6808 65.0481 16.8148 65.5494 17.0233 66.1686C17.2318 66.832 17.3956 67.3186 17.5148 67.6282L17.2765 67.7019C17.1723 67.4218 17.0829 67.2301 16.9936 67.1269C16.9042 67.0237 16.7851 66.95 16.6361 66.95C16.4872 66.95 16.2638 66.9795 15.9809 67.0827L10.2027 68.8519C9.90485 68.9403 9.71125 69.0288 9.59211 69.1173C9.47297 69.2057 9.4134 69.3237 9.39851 69.4564C9.38362 69.6038 9.42829 69.8102 9.50276 70.0903L9.26448 70.164C9.19002 69.8397 9.05599 69.3679 8.86239 68.7487C8.77304 68.4538 8.6539 68.1147 8.53476 67.7609C8.41562 67.407 8.32627 67.1564 8.28159 67.0237C8.08799 66.4192 8.02842 65.8885 8.0731 65.4167C8.11778 64.9449 8.2667 64.5616 8.50498 64.252C8.74325 63.9424 9.05599 63.736 9.44319 63.618C9.74103 63.5295 10.0687 63.5001 10.4261 63.5443C10.7835 63.5885 11.126 63.7359 11.4834 64.0013C11.8408 64.2667 12.1387 64.65 12.3918 65.1661L12.377 65.0186C12.3323 64.65 12.3174 64.3552 12.377 64.1045C12.4365 63.8539 12.5408 63.6475 12.6897 63.4706C12.8535 63.2936 13.0918 63.102 13.4045 62.9251L14.5065 62.2764C14.7299 62.1584 14.9086 62.0405 15.0129 61.952C15.1171 61.8635 15.2065 61.7751 15.2512 61.6866C15.2958 61.5982 15.2958 61.495 15.2661 61.3918C15.2214 61.2591 15.1618 61.1706 15.0725 61.1116C14.9831 61.0527 14.8342 60.979 14.6257 60.9052L14.7001 60.6841C14.998 60.7873 15.2512 60.9052 15.415 61.0379ZM11.8557 64.9891C11.6026 64.7532 11.3047 64.6205 10.992 64.5911C10.6792 64.5616 10.3218 64.6058 9.91974 64.7385C9.27937 64.9302 8.8475 65.2398 8.60922 65.6378C8.37095 66.0359 8.37095 66.5814 8.57944 67.2449C8.6539 67.4808 8.74325 67.6577 8.8326 67.7609C8.92196 67.8641 9.05599 67.9231 9.20491 67.9231C9.35383 67.9231 9.57722 67.8788 9.84528 67.8051L12.7046 66.9205L12.4663 66.1391C12.3174 65.6084 12.1089 65.225 11.8557 64.9891Z" fill="#B1B1B1"/>
<path id="Vector_18" d="M14.2683 47.0465C14.8342 46.7959 15.1767 46.3241 15.3256 45.6164C15.3703 45.351 15.3703 45.0856 15.2958 44.835C15.2214 44.5844 15.0873 44.3632 14.8788 44.1715C14.6704 43.9799 14.3874 43.8472 14.0151 43.7882C13.7024 43.7292 13.4194 43.7587 13.1513 43.8619C12.8833 43.9651 12.6152 44.1273 12.3621 44.3485C12.1089 44.5696 11.811 44.8645 11.4834 45.2331C11.1111 45.6459 10.7835 45.985 10.5005 46.2209C10.2176 46.4715 9.90484 46.6484 9.56232 46.7811C9.2198 46.9138 8.8326 46.9285 8.40072 46.8548C7.95396 46.7664 7.58165 46.6042 7.31359 46.3388C7.04553 46.0734 6.85193 45.7638 6.76258 45.3952C6.67322 45.0267 6.67322 44.6433 6.74768 44.2305C6.79236 43.9799 6.85193 43.7882 6.92639 43.6113C7.00085 43.4344 7.07531 43.3017 7.16467 43.1985C7.25402 43.0953 7.34337 42.9773 7.46251 42.8594C7.61143 42.6972 7.6859 42.5793 7.71568 42.4908C7.73057 42.4171 7.70079 42.3581 7.62633 42.2991C7.55187 42.2402 7.41784 42.1959 7.23913 42.137L7.28381 41.8716C7.74546 41.9895 8.54965 42.1664 9.72613 42.3876L9.68146 42.653C9.26447 42.6087 8.87727 42.6235 8.49008 42.712C8.11777 42.7857 7.79014 42.9478 7.52208 43.1985C7.25402 43.4344 7.07531 43.7735 7.00085 44.1863C6.94128 44.4664 6.95618 44.717 7.03064 44.9677C7.1051 45.2183 7.23913 45.41 7.41784 45.5722C7.61143 45.7343 7.83482 45.8375 8.10288 45.8965C8.53475 45.9702 8.90706 45.9113 9.2198 45.7048C9.53253 45.4984 9.83038 45.2331 10.1133 44.9234C10.3963 44.6138 10.575 44.4074 10.6792 44.3042C11.0962 43.8619 11.4387 43.5228 11.7217 43.2722C12.0046 43.0216 12.3174 42.8446 12.6599 42.7267C13.0024 42.6087 13.3747 42.594 13.7768 42.6677C14.2683 42.7562 14.6704 42.9478 14.9682 43.228C15.266 43.5228 15.4596 43.8619 15.5639 44.2747C15.6681 44.6876 15.6681 45.1299 15.5788 45.6016C15.5043 45.985 15.415 46.2798 15.2809 46.5157C15.1618 46.7516 14.998 46.958 14.8193 47.1497C14.6704 47.3119 14.5959 47.4298 14.5661 47.5183C14.5512 47.592 14.581 47.651 14.6555 47.7099C14.7299 47.7689 14.864 47.8279 15.0427 47.8721L14.998 48.1375C14.5661 48.0195 13.613 47.8279 12.1387 47.5625L12.1834 47.2971C13.0173 47.3708 13.7024 47.2971 14.2683 47.0465Z" fill="#B1B1B1"/>
<path id="Vector_19" d="M11.3196 34.6178C10.9026 34.3967 10.4261 34.1903 9.88995 33.9839C10.2176 33.4089 10.7686 32.4063 11.5132 30.9762C12.2578 29.5609 12.779 28.5583 13.062 27.9539C13.5534 28.2635 14.0002 28.5288 14.4023 28.7353C14.7597 28.9269 15.0725 29.0596 15.3107 29.1628L15.1767 29.4134C14.581 29.1776 14.1342 29.0301 13.8215 28.9859C13.5088 28.9269 13.2258 28.9859 12.9875 29.1333C12.7493 29.2808 12.511 29.5756 12.2876 30.0179L11.9898 30.6077L18.1403 33.7775C18.4381 33.9396 18.6764 34.0134 18.8402 34.0281C19.004 34.0428 19.1529 33.9986 19.287 33.8807C19.421 33.7627 19.5699 33.5416 19.7486 33.232L19.972 33.3499C19.7486 33.7185 19.4657 34.2345 19.1082 34.9127C18.7359 35.6204 18.4679 36.1659 18.3041 36.505L18.0807 36.387C18.2296 36.0627 18.3339 35.812 18.3487 35.6499C18.3785 35.473 18.3339 35.3255 18.2147 35.1928C18.0956 35.0601 17.902 34.9274 17.6041 34.7653L11.4536 31.5807L11.1409 32.1557C10.9026 32.598 10.7984 32.9518 10.8133 33.232C10.8282 33.5121 10.9473 33.7627 11.1707 33.9839C11.3941 34.205 11.7664 34.4999 12.3025 34.839L12.1685 35.0896C11.9749 34.9717 11.677 34.8095 11.3196 34.6178Z" fill="#B1B1B1"/>
<path id="Vector_20" d="M21.8333 17.6779C22.0865 17.4272 22.295 17.1913 22.4439 17.0144L22.6226 17.1913C22.5333 17.324 22.4886 17.5157 22.5035 17.7368C22.5184 17.958 22.5779 18.2676 22.6971 18.6362L24.0523 22.6316L25.6309 24.1797C25.8542 24.3861 26.0181 24.5335 26.1521 24.5925C26.2861 24.6514 26.4201 24.6514 26.5542 24.5925C26.6882 24.5335 26.852 24.4008 27.0754 24.2091L27.2541 24.3861C26.9712 24.6367 26.5989 24.9905 26.1372 25.4476C25.6457 25.9341 25.2883 26.3174 25.0649 26.5681L24.8862 26.3912C25.0798 26.17 25.2139 26.0078 25.2734 25.8751C25.333 25.7424 25.333 25.6098 25.2586 25.4771C25.199 25.3444 25.0501 25.1675 24.8416 24.9611L23.531 23.6784L18.557 22.2335C18.2592 22.1451 18.0358 22.1156 17.8869 22.1303C17.738 22.1451 17.6337 22.1893 17.5593 22.263L17.3806 22.0861C17.6188 21.8797 17.8869 21.6438 18.155 21.3637C18.706 20.8034 19.1081 20.4054 19.3314 20.14L19.5101 20.3169C19.1081 20.715 19.0187 21.0246 19.2421 21.2457C19.3314 21.3342 19.4506 21.3932 19.6293 21.4521L23.814 22.7348L22.712 19.4765C22.5482 19.0048 22.3843 18.6804 22.2056 18.5182C22.0418 18.356 21.8631 18.3118 21.6695 18.3708C21.4759 18.4298 21.2525 18.5772 20.9845 18.8278L20.8058 18.6509C21.1632 18.3266 21.4908 18.0022 21.8333 17.6779Z" fill="#B1B1B1"/>
<path id="Vector_21" d="M30.8436 11.7362C30.7543 11.8394 30.7096 11.9721 30.7394 12.1195C30.7691 12.267 30.8436 12.4734 30.9925 12.7388L33.8667 18.0169C34.0157 18.2823 34.1348 18.4592 34.2539 18.5624C34.3582 18.6656 34.4922 18.6951 34.6262 18.6803C34.7603 18.6656 34.9688 18.5771 35.2219 18.4444L36.0112 18.0169C36.458 17.781 36.7707 17.5303 36.9345 17.2797C37.0983 17.0291 37.1579 16.7489 37.1132 16.4098C37.0686 16.0708 36.9345 15.6432 36.6963 15.0829L36.9494 14.9503C37.0537 15.1862 37.2026 15.481 37.3962 15.8349C37.6196 16.2329 37.8876 16.6752 38.2153 17.1618C37.7238 17.3977 36.8899 17.8252 35.7432 18.4444C34.3731 19.1816 33.3306 19.7418 32.6456 20.1399L32.5264 19.9335C32.7796 19.7861 32.9583 19.6534 33.0477 19.5502C33.137 19.447 33.1817 19.3143 33.1519 19.1668C33.1221 19.0194 33.0477 18.813 32.8987 18.5476L29.9948 13.2695C29.8458 13.0041 29.7267 12.8272 29.6076 12.724C29.5033 12.6208 29.3693 12.5913 29.2352 12.6061C29.0863 12.6208 28.8927 12.6945 28.6247 12.8272L28.5204 12.6061C28.8332 12.4734 29.2948 12.2375 29.9054 11.8984C30.4862 11.5888 30.933 11.3381 31.2457 11.1465L31.3648 11.3529C31.1117 11.5003 30.9479 11.633 30.8436 11.7362Z" fill="#B1B1B1"/>
<path id="Vector_22" d="M48.9822 12.6797C49.0716 13.122 49.2056 13.6232 49.3694 14.1835C48.8184 14.2719 47.91 14.4341 46.6292 14.6848C45.0953 14.9796 43.9486 15.2155 43.1594 15.3924L43.1147 15.1565C43.3976 15.0828 43.6061 15.0239 43.7253 14.9354C43.8444 14.8617 43.9189 14.7437 43.9338 14.611C43.9486 14.4636 43.9338 14.2425 43.8742 13.9476L42.7126 8.06501C42.653 7.77015 42.5935 7.56374 42.5041 7.43105C42.4147 7.29836 42.3254 7.22464 42.1765 7.2099C42.0424 7.18041 41.8191 7.19516 41.5361 7.23939L41.4914 7.00349C42.2807 6.8708 43.4423 6.6644 44.9613 6.36953C46.1378 6.13364 46.9718 5.97146 47.4483 5.85352C47.493 6.38428 47.5675 6.85606 47.6419 7.26887C47.7015 7.57848 47.7611 7.81438 47.8206 7.9913L47.5526 8.05027C47.3888 7.549 47.2398 7.18041 47.1058 6.94452C46.9718 6.70863 46.7782 6.56119 46.5548 6.48748C46.3165 6.41376 46.0038 6.41376 45.5719 6.50222L44.5741 6.69388C44.2912 6.75286 44.0827 6.81183 43.9635 6.88555C43.8444 6.95926 43.7699 7.06247 43.7402 7.2099C43.7253 7.35733 43.7402 7.57848 43.7997 7.87335L44.3507 10.6746L45.14 10.5124C45.5421 10.4387 45.7804 10.2618 45.8697 9.99639C45.9591 9.73101 45.9889 9.48037 45.974 9.22974C45.9591 8.9791 45.9442 8.81692 45.9442 8.74321L46.2123 8.68423C46.2569 9.0823 46.3165 9.45089 46.391 9.80472L46.5101 10.365C46.5846 10.763 46.7186 11.3233 46.9122 12.031L46.6441 12.0899C46.6292 12.031 46.5697 11.854 46.4654 11.5297C46.3612 11.2053 46.2123 10.9842 45.9889 10.8515C45.7655 10.7188 45.5123 10.6893 45.1847 10.7483L44.3954 10.8957L44.9613 13.7412C45.0209 14.0361 45.0805 14.2425 45.1549 14.3752C45.2294 14.4931 45.3336 14.5668 45.4825 14.5963C45.6166 14.611 45.84 14.5963 46.1229 14.5373L47.0016 14.3604C47.493 14.2572 47.8653 14.1245 48.1036 13.9476C48.3419 13.7707 48.4759 13.52 48.5355 13.2104C48.595 12.9008 48.595 12.4585 48.5503 11.8835L48.8184 11.8246C48.8631 12.0457 48.9078 12.3258 48.9822 12.6797Z" fill="#B1B1B1"/>
</g>
<g id="Group_3">
<path id="Vector_23" d="M38.9446 68.9845C38.2595 68.0705 37.6638 67.0679 37.1426 65.9622C36.6214 64.8564 36.2044 63.7359 35.8916 62.5859C35.2066 57.529 35.1917 52.6195 35.8321 47.8574C36.4724 43.0953 37.5149 38.4069 38.9446 33.7775C39.1828 33.2615 39.7041 33.0108 40.5082 33.0108C41.3124 33.0108 42.1017 33.1878 42.9059 33.5416C43.7101 33.8954 44.3653 34.3672 44.8866 34.957C45.4078 35.5467 45.5269 36.1659 45.244 36.7999C44.7972 37.7435 44.3653 39.0261 43.9335 40.6184C43.5016 42.2254 43.0697 43.9946 42.6825 45.926C42.2804 47.8574 41.9379 49.8919 41.6401 52.0002C41.3422 54.1085 41.1188 56.1431 40.9848 58.0745C40.8508 60.0059 40.821 61.7603 40.8954 63.3231C40.9699 64.8859 41.2082 66.1243 41.6103 67.0237C43.4867 64.5321 45.1993 61.952 46.763 59.2834C48.3267 56.6149 49.7861 53.9169 51.1562 51.1599C52.5263 48.4176 53.8368 45.6459 55.0729 42.8299C56.3089 40.0287 57.5301 37.2569 58.7215 34.5294C59.3171 33.1435 59.9128 31.6839 60.4936 30.1506C61.0744 28.6026 61.8339 27.2904 62.8019 26.1847C63.204 25.8309 63.5167 25.7129 63.7252 25.8309C63.9486 25.9488 64.0976 26.1699 64.172 26.509C64.2465 26.8481 64.2911 27.202 64.2911 27.5706C64.2911 27.9391 64.2911 28.234 64.2911 28.4257C64.0082 30.2391 63.7699 32.0378 63.5763 33.8217C63.3827 35.6057 62.9508 37.3159 62.3254 38.9819C61.2829 41.5915 60.2256 44.1715 59.1235 46.7516C58.0215 49.317 56.845 51.8528 55.5941 54.3444C54.3431 56.836 52.973 59.2539 51.5285 61.5981C50.0691 63.9571 48.4905 66.1981 46.763 68.3211C45.4078 70.0166 44.0526 70.9159 42.7272 71.0191C41.3422 71.1371 40.1061 70.4441 38.9446 68.9845Z" fill="#B1B1B1" stroke="white" stroke-miterlimit="10"/>
<path id="Vector_24" d="M63.6064 62.2912C62.8022 61.1854 62.0129 60.0649 61.2385 58.9149C60.4641 57.765 60.0769 56.5118 60.0769 55.1259C60.0769 53.5926 60.5237 52.133 61.4172 50.7619C62.3108 49.4055 63.3383 48.2998 64.4999 47.4741C64.9765 47.1645 65.4679 46.8991 65.9594 46.7075C66.4508 46.5158 66.9869 46.5306 67.5528 46.7665C67.7911 46.8844 68.0443 46.9729 68.2975 47.0318C68.5506 47.0908 68.7889 47.1645 68.9825 47.2382C69.1761 47.312 69.3995 47.4299 69.6378 47.5921C69.876 47.7543 69.9952 47.9607 69.9952 48.2408C69.9952 49.3465 70.025 50.2459 70.0845 50.9388C70.1441 51.6317 70.2334 52.2215 70.3526 52.7228C70.4717 53.224 70.5909 53.6516 70.71 54.0202C70.8291 54.4035 70.9483 54.8016 71.0674 55.2291C71.1419 55.6272 71.127 55.9663 71.0078 56.2317C70.8887 56.5118 70.5909 56.5413 70.1143 56.3496C69.2357 56.04 68.5804 55.406 68.1634 54.4477C67.7464 53.4894 67.4337 52.6343 67.2401 51.8382C67.1954 51.676 67.1061 51.4106 66.9423 51.0125C66.7784 50.6145 66.6891 50.3343 66.6444 50.1869C66.3317 50.1132 65.9445 50.2164 65.5126 50.5113C65.0807 50.8061 64.6786 51.2189 64.351 51.7202C64.0085 52.2362 63.7851 52.826 63.6957 53.5042C63.5915 54.1823 63.7255 54.8458 64.083 55.524C64.2468 55.7599 64.4701 56.0547 64.768 56.3791C65.0658 56.7182 65.3637 57.0573 65.6615 57.4111C65.9594 57.765 66.2572 58.1188 66.5551 58.4432C66.8529 58.7675 67.1061 59.0476 67.2997 59.2393C67.538 59.4752 67.7018 59.6079 67.7762 59.6226C67.8507 59.6374 68.0592 59.5931 68.3719 59.4752C68.774 59.2835 69.3846 59.0182 70.2037 58.7085C71.0227 58.3989 71.8865 58.0746 72.78 57.765C73.6736 57.4554 74.5373 57.19 75.3564 56.9688C76.1754 56.7477 76.8009 56.6445 77.2477 56.6445C77.5306 56.6445 77.7242 56.7477 77.8434 56.9393C77.9625 57.0573 77.9476 57.2195 77.7838 57.4111C77.62 57.6028 77.4115 57.8092 77.1583 58.0009C76.9052 58.1925 76.6222 58.3694 76.3542 58.5316C76.0712 58.6938 75.8925 58.7823 75.818 58.8265C75.133 59.2246 74.2841 59.6669 73.2417 60.1681C72.1992 60.6547 71.3057 61.1412 70.5462 61.613C70.4717 61.6867 70.3228 61.7752 70.0994 61.8489C69.876 61.9226 69.7122 62.011 69.5931 62.0848C70.0696 63.1463 70.4122 64.0751 70.6058 64.8418C70.7994 65.6084 70.8738 66.3456 70.8142 67.068C70.7547 67.7757 70.6058 68.4981 70.3675 69.2353C70.1292 69.9724 69.8016 70.8128 69.4144 71.7564C68.8485 72.6705 68.2826 73.5403 67.7018 74.3659C67.121 75.1916 66.4806 75.9435 65.7509 76.6217C65.0361 77.2999 64.2468 77.8306 63.4128 78.2139C62.5788 78.612 61.6555 78.8037 60.6577 78.8037C60.0918 78.8037 59.5557 78.73 59.0345 78.5973C58.5133 78.4646 58.0814 78.1697 57.724 77.7422C56.8006 76.7544 56.2943 75.6781 56.1752 74.5134C56.056 73.3487 56.1603 72.1987 56.473 71.0487C56.7113 70.341 57.0091 69.6923 57.3665 69.0878C58.2452 67.584 59.2132 66.3161 60.2705 65.2693C61.3428 64.2373 62.4448 63.2347 63.6064 62.2912ZM65.6466 64.9597C65.1999 65.402 64.6042 66.0212 63.8447 66.8321C63.0852 67.643 62.3852 68.5276 61.7151 69.4712C61.0598 70.4147 60.5237 71.3583 60.1067 72.2871C59.6897 73.216 59.5855 74.0121 59.7791 74.6903C60.5833 74.3365 61.4023 73.7467 62.2363 72.9358C63.0703 72.125 63.8149 71.2404 64.4553 70.2673C65.0956 69.2942 65.5424 68.3359 65.7956 67.3924C66.0487 66.434 66.004 65.6232 65.6466 64.9597Z" fill="#B1B1B1" stroke="white" stroke-miterlimit="10"/>
</g>
<g id="Group_4">
<path id="Vector_25" d="M53.8963 86.2931C35.2661 86.2931 20.1058 71.2844 20.1058 52.8405C20.1058 34.3966 35.2661 19.3879 53.8963 19.3879C72.5265 19.3879 87.6868 34.3966 87.6868 52.8405C87.6868 71.2844 72.5265 86.2931 53.8963 86.2931ZM53.8963 20.8623C36.0852 20.8623 21.5951 35.2075 21.5951 52.8405C21.5951 70.4735 36.0852 84.8188 53.8963 84.8188C71.7074 84.8188 86.1976 70.4735 86.1976 52.8405C86.1976 35.2075 71.7074 20.8623 53.8963 20.8623Z" fill="#B1B1B1"/>
</g>
</g>
</svg>
