<svg width="171" height="45" viewBox="0 0 171 45" fill="none" xmlns="http://www.w3.org/2000/svg">
<g id="03">
<g id="Group">
<path id="Vector" d="M36.5732 44.9311H8.59441C3.99655 44.9311 0.270264 41.242 0.270264 36.6901V8.99116C0.270264 4.43928 3.99655 0.750244 8.59441 0.750244H36.5732C41.171 0.750244 44.8973 4.43928 44.8973 8.99116V36.6901C44.8973 41.242 41.171 44.9311 36.5732 44.9311Z" fill="#B1B1B1"/>
</g>
<g id="Group_2">
<path id="Vector_2" d="M30.6235 23.2471C31.4193 24.2351 31.8236 25.3855 31.8236 26.6861C31.8236 28.5994 31.1793 30.1 29.8909 31.1629C28.6025 32.2259 26.7583 32.7761 24.3583 32.7761H13.8742V10.4543H24.1057C26.4046 10.4543 28.1731 10.9546 29.4236 11.9425C30.6741 12.9304 31.3057 14.3435 31.3057 16.1692C31.3057 17.5198 30.9394 18.6327 30.2194 19.5331C29.4994 20.4335 28.552 21.0087 27.3773 21.2838C28.7541 21.609 29.8278 22.2592 30.6235 23.2471ZM19.3184 19.5831H22.8931C24.7878 19.5831 25.7352 18.7828 25.7352 17.1821C25.7352 15.5815 24.7626 14.7811 22.8299 14.7811H19.3184V19.5831ZM26.2404 25.9358C26.2404 25.1354 25.9752 24.5102 25.4447 24.06C24.9141 23.6098 24.1562 23.3847 23.1836 23.3847H19.331V28.3993H23.2215C25.2299 28.3868 26.2404 27.5739 26.2404 25.9358Z" fill="white"/>
</g>
<g id="Group_3">
<path id="Vector_3" d="M70.754 32.7761L65.8782 24.3476H64.6403V32.7761H59.1835V10.4543H68.4929C70.274 10.4543 71.7898 10.7545 73.015 11.3672C74.2529 11.98 75.175 12.8178 75.7939 13.8808C76.4129 14.9437 76.716 16.1567 76.716 17.5323C76.716 19.158 76.2613 20.5335 75.3645 21.6715C74.455 22.8095 73.154 23.5848 71.4234 24.01L76.7792 32.7886H70.754V32.7761ZM64.6403 20.6586H68.0129C69.0992 20.6586 69.895 20.421 70.4003 19.9458C70.9056 19.4706 71.1708 18.7703 71.1708 17.8449C71.1708 16.957 70.9055 16.2693 70.3877 15.7565C69.8698 15.2563 69.074 14.9937 68.0129 14.9937H64.6403V20.6586Z" fill="#B1B1B1"/>
<path id="Vector_4" d="M101.398 28.7119H92.9479L91.5457 32.7886H85.811L94.072 10.6294H100.35L108.611 32.7886H102.813L101.398 28.7119ZM99.9962 24.5977L97.192 16.3943L94.3499 24.5977H99.9962Z" fill="#B1B1B1"/>
<path id="Vector_5" d="M138.711 32.7761H133.255L124.135 19.0704V32.7761H118.678V10.4543H124.135L133.255 24.2851V10.4543H138.711V32.7761Z" fill="#B1B1B1"/>
<path id="Vector_6" d="M169.305 27.3988C168.358 29.087 166.994 30.4126 165.225 31.363C163.444 32.3133 161.36 32.7885 158.96 32.7885H150.446V10.4668H158.96C161.385 10.4668 163.482 10.9295 165.238 11.8549C167.006 12.7803 168.358 14.0808 169.305 15.769C170.252 17.4572 170.72 19.383 170.72 21.5839C170.72 23.7598 170.24 25.6981 169.305 27.3988ZM163.431 26.2733C164.606 25.1604 165.2 23.5847 165.2 21.5714C165.2 19.5456 164.606 17.9824 163.431 16.8695C162.257 15.7565 160.602 15.1938 158.467 15.1938H155.89V27.949H158.467C160.602 27.949 162.257 27.3988 163.431 26.2733Z" fill="#B1B1B1"/>
</g>
</g>
</svg>
