<svg width="152" height="46" viewBox="0 0 152 46" fill="none" xmlns="http://www.w3.org/2000/svg">
<g id="04">
<g id="Group">
<path id="Vector" d="M21.8369 9.20443L22.9538 8.96854C23.2368 8.96854 23.475 9.02752 23.6389 9.14546C23.8027 9.26341 23.892 9.38135 23.892 9.48456C23.892 9.58776 23.8622 9.74994 23.8176 9.9416C23.7729 10.1333 23.3559 12.1089 22.5815 15.8389C21.8071 19.569 21.2412 22.3555 20.8838 24.1836C22.6113 21.8542 24.6366 18.994 26.9449 15.5883C29.2532 12.1826 30.6084 9.92686 30.9956 8.80636C31.1148 8.45252 31.2786 8.18715 31.4722 7.99548C31.6658 7.80382 31.8445 7.68587 31.9934 7.65639C32.1423 7.6269 32.3806 7.59741 32.6933 7.59741C33.0061 7.59741 33.3784 7.67113 33.8103 7.80382C34.2421 7.93651 34.4655 8.15766 34.4655 8.48201C34.4655 9.07174 33.572 10.7967 31.7998 13.6274C30.0276 16.4581 27.9874 19.4658 25.694 22.6503C23.4006 25.8349 21.4944 28.356 19.9605 30.2137C19.6924 30.538 19.3499 30.7149 18.9627 30.7149C18.5755 30.7149 18.1585 30.6412 17.7266 30.5085C17.2948 30.3758 17.0714 30.1399 17.0714 29.7861C17.0714 28.6804 18.0543 23.3433 20.02 13.8044C18.3372 15.9569 16.297 18.9645 13.8993 22.8125C11.3974 26.7932 9.98268 29.2701 9.65505 30.2137C9.47634 30.7887 9.26785 31.1277 9.02958 31.2162C8.86576 31.2899 8.68705 31.3194 8.50834 31.3194L7.30207 31.4521C7.0638 31.4521 6.8553 31.3931 6.64681 31.2604C6.45321 31.1277 6.34897 30.9951 6.34897 30.8476C6.34897 30.4496 6.91488 29.2406 8.0318 27.2355C9.14872 25.2304 10.4741 23.0484 11.9782 20.6895C13.4823 18.3305 15.046 16.0453 16.6842 13.8191C18.3223 11.5929 19.5882 10.089 20.4817 9.33712C20.6604 9.17495 20.8689 9.10123 21.1072 9.10123L21.8369 9.20443Z" fill="#B1B1B1"/>
<path id="Vector_2" d="M39.7371 19.2005C40.5115 19.2005 40.8987 19.4659 40.8987 19.9819C40.8987 20.262 40.8391 20.4684 40.7051 20.6011C40.571 20.7338 40.2881 21.1614 39.8562 21.9133C39.4244 22.6505 38.9478 23.594 38.4266 24.7587C37.9053 25.9087 37.5628 26.8965 37.4139 27.7074C37.3841 27.8106 37.3692 27.9433 37.3692 28.135C37.3692 28.6952 37.5181 28.9606 37.8309 28.9606C38.1436 28.9606 38.501 28.8132 38.918 28.533C39.335 28.2382 39.7073 27.9433 40.0349 27.6042C40.3626 27.2799 40.6753 26.9408 40.988 26.6017C41.3008 26.2626 41.4795 26.0562 41.5391 26.0119C41.5986 25.9677 41.688 25.9382 41.8071 25.9382C42.0007 25.9382 42.1199 26.0856 42.1645 26.3805C42.2092 26.6754 42.2241 26.9702 42.2241 27.2946C42.2241 27.619 42.1943 27.8254 42.1347 27.9433C41.8369 28.5183 41.1965 29.2112 40.1839 30.0221C39.1861 30.833 38.2628 31.2311 37.4437 31.2311C36.6246 31.2311 36.014 30.9804 35.6417 30.4939C35.2694 30.0074 35.0609 29.4471 35.0609 28.8574C35.0609 28.2529 35.1652 27.7369 35.3737 27.2799C34.5248 28.3709 33.5568 29.2849 32.4697 30.0516C31.3676 30.8035 30.489 31.1868 29.7891 31.1868C29.0891 31.1868 28.5381 30.9804 28.0914 30.5676C27.5255 30.0516 27.2574 29.3439 27.2574 28.4298C27.2574 27.5158 27.4659 26.6017 27.8829 25.6728C28.2998 24.7588 28.836 23.9036 29.5061 23.1517C30.1763 22.3851 30.9209 21.6921 31.7251 21.0729C33.4079 19.7608 34.9716 19.1121 36.4012 19.1121C36.9522 19.1121 37.399 19.2005 37.7415 19.3774C38.0841 19.5544 38.3074 19.7903 38.3968 20.0556C38.6351 19.687 38.8436 19.4659 39.0223 19.3627C39.1563 19.2447 39.4095 19.2005 39.7371 19.2005ZM37.7117 20.8813C35.9694 20.8813 34.1674 21.8396 32.3059 23.7562C31.6506 24.4491 31.04 25.26 30.4741 26.2183C29.9082 27.1767 29.6402 27.8254 29.6402 28.1792C29.6402 28.533 29.7444 28.71 29.9529 28.71C30.2359 28.71 31.0251 28.1497 32.3356 27.044C33.6462 25.9382 34.5099 25.1126 34.9269 24.5818C35.4035 23.9921 36.3268 22.7537 37.7117 20.8813Z" fill="#B1B1B1"/>
<path id="Vector_3" d="M51.3235 11.2095L51.9489 11.3569C52.0383 11.3569 52.1276 11.4011 52.1872 11.4896C52.2617 11.5781 52.2915 11.6665 52.2915 11.7402C52.2915 11.8139 52.1872 12.0351 51.9638 12.3889C51.7405 12.7428 51.5022 13.1408 51.2043 13.5831C50.9065 14.0254 50.7576 14.2761 50.7427 14.3203C51.532 14.2613 52.0979 14.2319 52.4255 14.2319C52.7531 14.2319 52.9765 14.2613 53.1105 14.3056C53.2297 14.3498 53.3786 14.4825 53.5275 14.6889C53.6913 14.8953 53.8254 15.0575 53.9594 15.1607C54.0934 15.2639 54.153 15.4261 54.153 15.6325C54.153 15.8389 54.019 16.0305 53.7658 16.1632C53.5126 16.3107 53.2297 16.3991 52.9318 16.4286C50.564 16.6645 49.2683 16.7824 49.0301 16.7972C48.211 18.0504 47.0494 19.9965 45.5751 22.6355C44.1007 25.2746 43.3114 26.9406 43.2221 27.604C43.1774 27.9137 43.1625 28.1495 43.1625 28.3412C43.1625 28.7393 43.371 28.9309 43.788 28.9309C44.205 28.9309 44.6666 28.7688 45.173 28.4592C45.6793 28.1348 46.1559 27.7957 46.5728 27.4271C47.7195 26.4246 48.3301 25.9086 48.4046 25.9086C48.6727 25.9086 48.8067 26.3656 48.8067 27.2649C48.8067 27.7515 48.5833 28.1938 48.1216 28.5918C47.0941 29.4617 46.2303 30.1252 45.5304 30.5675C44.8304 31.0098 44.1305 31.2309 43.4157 31.2309C43.2668 31.2309 43.1179 31.2162 42.9838 31.1867C42.1647 31.0392 41.569 30.7444 41.1967 30.3021C40.8095 29.8598 40.6308 29.27 40.6308 28.5329C40.6308 27.7957 40.8542 26.8816 41.301 25.8201C41.7478 24.7586 42.2988 23.6233 42.9689 22.4291C44.0709 20.4683 45.173 18.6401 46.2601 16.9299L45.6793 17.0036C44.5028 17.1363 43.8178 17.1953 43.6242 17.1953H43.4902C43.1923 17.1953 42.9093 17.1363 42.6413 17.0183C42.3732 16.9004 42.2243 16.753 42.2243 16.5908C42.2243 16.4139 42.2988 16.2517 42.4477 16.0895C42.5966 15.9273 42.686 15.7946 42.7157 15.7062C42.7902 15.485 43.0583 15.2344 43.5199 14.969C43.9816 14.7036 44.3241 14.5562 44.5624 14.5415C44.8007 14.5267 45.024 14.512 45.2474 14.4972C45.4708 14.4825 45.7091 14.4825 45.9772 14.4677C46.2452 14.453 46.4537 14.453 46.6026 14.4383L47.9727 14.3793C48.8216 13.1114 49.4173 12.2857 49.73 11.9319C50.0576 11.5633 50.2363 11.3716 50.281 11.3422C50.3257 11.3127 50.4299 11.2832 50.5937 11.2832L51.3235 11.2095Z" fill="#B1B1B1"/>
<path id="Vector_4" d="M60.482 25.9382C60.6756 25.9382 60.7948 26.0856 60.8394 26.3805C60.8841 26.6753 60.899 26.9702 60.899 27.2945C60.899 27.6189 60.8692 27.8253 60.8096 27.9432C60.5118 28.5035 59.8715 29.1964 58.8737 30.0073C57.8759 30.8182 56.9228 31.231 56.0293 31.231C55.4782 31.231 54.9719 31.0688 54.4954 30.7445C54.0337 30.4201 53.7954 29.8451 53.7954 29.0343C53.7954 28.2234 54.0188 27.4125 54.4507 26.6311C51.919 29.7714 49.9532 31.3342 48.5087 31.3342C47.9428 31.3342 47.4811 31.1278 47.1237 30.7297C46.7663 30.3317 46.6025 29.9189 46.6025 29.4766C46.6025 29.049 46.662 28.6067 46.7812 28.1497C46.9003 27.6926 47.0343 27.2798 47.1684 26.9112C47.3024 26.5426 47.5109 26.1003 47.7789 25.5696C48.047 25.0388 48.2555 24.6555 48.3746 24.4049C48.4938 24.1542 48.7172 23.8004 49.015 23.3138C49.3128 22.8273 49.6852 22.1639 50.1617 21.3382C50.6383 20.5126 51.0254 19.8934 51.3382 19.4953C51.6509 19.0973 51.9488 18.8909 52.2466 18.8909C52.5445 18.8909 52.7976 19.0088 53.021 19.2447C53.2444 19.4806 53.3635 19.687 53.3635 19.8344C53.3635 19.9819 53.021 20.6601 52.336 21.869C50.3255 25.4811 49.3129 27.5747 49.3129 28.1791C49.3129 28.3266 49.3724 28.4003 49.4767 28.4003C49.9681 28.4003 51.1893 27.3535 53.1253 25.26C55.0613 23.1664 56.1931 21.8248 56.5058 21.235C56.8185 20.6453 57.1015 20.144 57.3993 19.746C57.6823 19.3479 57.9057 19.0973 58.0546 19.0088C58.4865 18.7287 59.0524 18.5812 59.7523 18.5518C59.8715 18.5518 59.9459 18.5518 60.0055 18.5665C60.065 18.5812 60.1395 18.6697 60.214 18.8171C60.2884 18.9646 60.3331 19.0973 60.3331 19.2005C60.2438 19.4806 59.8417 20.2325 59.1119 21.4562C58.3971 22.6799 57.995 23.3728 57.9206 23.5203C56.7143 25.9824 56.1186 27.5894 56.1186 28.3266C56.1186 28.7541 56.2824 28.9605 56.61 28.9605C57.2057 28.8868 57.9206 28.415 58.7545 27.5599C59.0673 27.2503 59.3651 26.926 59.663 26.6016C59.9608 26.2773 60.1544 26.0856 60.214 26.0414C60.2884 25.9676 60.3778 25.9382 60.482 25.9382Z" fill="#B1B1B1"/>
<path id="Vector_5" d="M64.905 22.4441C67.3027 19.7461 69.3578 18.3897 71.0407 18.3897C71.4576 18.3897 71.8002 18.5076 72.0682 18.7583C72.3363 19.0089 72.4703 19.3185 72.4703 19.7166C72.4703 20.1147 72.1874 20.7634 71.6215 21.6922C71.0556 22.6063 70.5343 23.3877 70.0578 24.0216C69.8046 24.346 69.5217 24.5082 69.194 24.5082C68.8813 24.5082 68.6281 24.3902 68.4494 24.1543C68.2707 23.9184 68.1814 23.6531 68.1814 23.3434C68.1814 22.6505 68.5537 21.8544 69.3132 20.9845L69.2834 20.955C68.9408 20.9845 68.1218 21.648 66.7815 22.9159C65.4561 24.1986 64.3243 25.3485 63.3861 26.3511C62.4627 27.3684 61.4501 28.5921 60.348 30.0517C60.0353 30.4792 59.7672 30.7004 59.5439 30.7004C59.3205 30.7004 59.0375 30.6266 58.6801 30.4939C58.3227 30.3613 58.0993 30.2581 58.0248 30.1991C57.9504 30.1401 57.9057 30.0369 57.9057 29.8895C57.9057 29.7568 57.9504 29.5799 58.0248 29.4029C58.0993 29.2113 58.2631 28.9459 58.4716 28.6068C58.6801 28.2677 59.0226 27.7075 59.4694 26.9408C59.9162 26.1742 60.6012 25.0094 61.5394 23.4614C62.4776 21.9133 63.0286 20.9698 63.2222 20.6454C63.6094 19.982 63.9222 19.4954 64.1753 19.2006C64.637 18.6256 65.4114 18.3455 66.4985 18.3455C66.7368 18.3455 66.8708 18.4929 66.8708 18.8025C66.8708 19.2743 66.4241 20.1736 65.5454 21.471L64.905 22.4441Z" fill="#B1B1B1"/>
<path id="Vector_6" d="M81.3314 19.3775C81.3314 20.0409 81.0633 20.6306 80.5123 21.1319C79.9613 21.6332 79.3507 21.8838 78.6508 21.8838C78.4274 21.8838 78.2784 21.8249 78.204 21.7217C78.1295 21.6185 78.0997 21.471 78.0997 21.3088C78.0997 21.1467 78.1146 20.9697 78.1593 20.8076C77.787 20.9255 77.3849 21.1172 76.9381 21.3678C76.4914 21.6185 75.9404 21.987 75.2851 22.4883C74.6298 22.9896 74.3022 23.3434 74.3022 23.5941C74.3022 23.6678 74.4213 23.712 74.6596 23.712C74.8979 23.712 75.2702 23.6235 75.7617 23.4614C76.2531 23.2992 76.6105 23.2107 76.8041 23.2107C76.9977 23.2107 77.1317 23.2255 77.1913 23.2402C77.3253 23.3139 77.4594 23.4614 77.6232 23.6973C77.7721 23.9332 77.8466 24.1248 77.8466 24.2575C77.8466 24.3902 77.7125 24.5671 77.4445 24.7883C77.1764 25.0094 76.8786 25.1716 76.5509 25.2895C76.2084 25.4075 75.985 25.4959 75.8808 25.5549C73.7363 26.7491 72.6641 27.56 72.6641 28.0023C72.6641 28.7837 73.3342 29.1818 74.6894 29.1818C75.5532 29.1818 76.4318 28.9164 77.2956 28.3709C78.0402 27.9138 78.7103 27.4421 79.306 26.9555C79.9017 26.4837 80.274 26.1889 80.4378 26.0709C80.6016 25.953 80.7208 25.9088 80.7952 25.9088C81.0633 25.9088 81.1973 26.2036 81.1973 26.7934C81.1973 27.3831 81.1675 27.7664 81.0931 27.9433C81.0186 28.135 80.825 28.3561 80.4825 28.6363C78.3082 30.3907 76.2382 31.2753 74.3022 31.2753C73.2598 31.2753 72.4407 31.1279 71.8152 30.8478C70.6685 30.3318 70.1026 29.5504 70.1026 28.4888C70.1026 27.103 71.0706 26.0414 73.0215 25.3338C72.6343 25.1568 72.3811 24.9504 72.2769 24.6703C72.1577 24.4049 72.1131 23.9774 72.1131 23.3876C72.1131 22.7979 72.396 22.1787 72.947 21.5153C73.498 20.8518 74.1831 20.3063 74.9873 19.8935C76.7743 18.9352 78.3827 18.4634 79.7826 18.4634C80.1251 18.4634 80.4527 18.5371 80.8101 18.6993C81.1675 18.8614 81.3314 19.0826 81.3314 19.3775Z" fill="#B1B1B1"/>
<path id="Vector_7" d="M116.09 9.11602H116.283C116.343 9.11602 116.387 9.11602 116.402 9.13076C116.417 9.14551 116.432 9.14551 116.462 9.16025C116.492 9.16025 116.507 9.17499 116.536 9.20448C116.581 9.24871 116.656 9.29294 116.745 9.33717C116.864 9.42563 116.924 9.52883 116.924 9.64678C116.924 9.76473 116.804 10.0154 116.566 10.3987C116.328 10.782 115.717 11.7108 114.72 13.2147C112.441 16.6646 110.401 19.8786 108.599 22.8273C105.486 27.958 103.908 30.5381 103.878 30.5675C103.848 30.597 103.833 30.6265 103.818 30.656C103.804 30.715 103.774 30.7445 103.699 30.7445L103.491 30.7002L103.074 30.8034L102.836 30.7592L102.582 30.8034H102.493L101.644 30.9214C101.138 30.9214 100.885 30.7445 100.885 30.4054C100.885 30.2579 100.929 30.081 101.019 29.8746C101.331 29.1374 102.925 26.4689 105.784 21.8395C103.908 21.8837 102.046 21.9132 100.215 21.9132L96.9382 21.8985C96.4021 22.7536 95.6575 23.9625 94.7193 25.5401C92.6939 28.9753 91.6217 30.7002 91.4877 30.7297C91.3536 30.7592 91.2494 30.7887 91.16 30.7887C91.0707 30.7887 90.9962 30.7445 90.9367 30.6413C90.8622 30.5528 90.8175 30.4938 90.7877 30.4938C90.7579 30.4938 90.7133 30.5086 90.6239 30.5528C90.5495 30.597 90.4303 30.6118 90.2665 30.6118L89.9091 30.597L89.7751 30.5086C89.7602 30.5086 89.7453 30.5233 89.7304 30.5528C89.7155 30.5823 89.6708 30.597 89.6113 30.597C89.1794 30.597 88.956 30.4201 88.956 30.0515C88.956 29.8156 89.0453 29.4913 89.2092 29.0932C89.3879 28.6951 89.6113 28.2676 89.8942 27.8105C90.1772 27.3535 90.892 26.2478 92.0685 24.5228C93.2301 22.7978 93.8109 21.928 93.8109 21.9132C93.6173 21.8985 93.3939 21.8985 93.1407 21.8837C92.6195 21.8837 92.2621 21.869 92.0387 21.8248C91.4579 21.7216 91.0558 21.2498 90.8473 20.4094C90.7282 19.9966 90.6835 19.7312 90.6984 19.5985C90.6984 19.3331 90.8175 19.1857 91.0558 19.1857L91.4579 19.2889C91.6664 19.3036 92.1429 19.3184 92.9173 19.3626C93.6917 19.4069 94.2427 19.4216 94.5853 19.4216L95.449 19.3921C96.7744 17.3428 98.353 15.0133 100.2 12.4185C98.8593 13.5095 97.3701 14.055 95.732 14.055C94.9576 14.055 94.2874 13.8781 93.7364 13.5095C93.1705 13.1409 92.9024 12.6692 92.9024 12.1089C92.9024 11.5487 93.1109 11.1064 93.5428 10.7673C93.9747 10.4429 94.3768 10.2807 94.764 10.2807C95.1512 10.2807 95.3448 10.3397 95.3448 10.4577C95.3448 10.5019 95.2852 10.5461 95.1809 10.5904C95.0767 10.6493 95.0171 10.6936 95.0171 10.7378C95.0171 10.9 95.1958 11.0474 95.5532 11.1653C95.9107 11.2833 96.3127 11.357 96.7595 11.357C97.2063 11.357 97.7424 11.2243 98.3977 10.9737C99.0529 10.723 99.7231 10.3839 100.423 9.98587C101.406 9.42563 102.18 8.95384 102.746 8.58526C103.074 8.42308 103.372 8.34937 103.67 8.34937C103.967 8.34937 104.161 8.37885 104.295 8.45257C104.429 8.51154 104.518 8.58526 104.578 8.64423C104.638 8.70321 104.712 8.79167 104.772 8.89487C104.846 8.99807 104.906 9.08653 104.98 9.13076C105.04 9.18974 105.084 9.24871 105.084 9.32242C105.084 9.39614 105.04 9.49935 104.965 9.66152C104.891 9.80896 104.503 10.4282 103.804 11.5044C103.104 12.5807 102.195 13.9518 101.093 15.6178C99.9911 17.2838 99.187 18.5075 98.6806 19.3037C101.406 19.3037 104.34 19.2594 107.497 19.1562C111.339 13.1557 113.364 10.0154 113.573 9.72049C113.781 9.42563 113.975 9.23397 114.154 9.14551C114.332 9.05705 114.541 9.01282 114.794 9.01282L116.09 9.11602Z" fill="#B1B1B1"/>
<path id="Vector_8" d="M121.064 19.1709C121.377 19.1709 121.689 19.3036 122.002 19.5837C122.33 19.8638 122.479 20.2766 122.479 20.8369C122.479 21.3971 122.285 22.1195 121.883 23.0189C121.481 23.9035 120.945 24.8176 120.245 25.7464C119.56 26.6605 118.785 27.5303 117.966 28.3412C117.132 29.1521 116.239 29.8155 115.286 30.3316C114.318 30.8476 113.454 31.113 112.665 31.113C111.875 31.113 111.25 30.8623 110.773 30.3758C110.297 29.8893 110.059 29.2111 110.059 28.3412C110.059 27.4714 110.282 26.4983 110.714 25.4515C111.146 24.39 111.697 23.4612 112.382 22.6503C113.067 21.8394 113.797 21.117 114.601 20.4683C116.254 19.1414 117.713 18.4927 118.964 18.4927C119.53 18.4927 119.947 18.6254 120.23 18.9055C120.334 18.994 120.379 19.0824 120.379 19.1414V19.2298C120.543 19.1709 120.766 19.1709 121.064 19.1709ZM119.53 21.176H119.426C119.068 21.176 118.89 20.9253 118.89 20.4093C118.145 20.6452 117.371 21.0728 116.552 21.6772C115.733 22.2817 115.003 23.0041 114.362 23.8298C113.052 25.481 112.397 26.8816 112.382 28.0169C112.382 28.5771 112.59 28.8572 113.007 28.8572C113.424 28.8572 114.05 28.5771 114.869 28.0463C115.688 27.5156 116.507 26.7342 117.326 25.7169C118.13 24.7144 118.741 23.8298 119.143 23.0926C119.545 22.3554 119.753 21.8542 119.753 21.574C119.739 21.3086 119.664 21.176 119.53 21.176Z" fill="#B1B1B1"/>
<path id="Vector_9" d="M122.151 30.7738L121.406 30.7443H121.138C121.034 30.7149 120.93 30.6559 120.81 30.5674C120.691 30.479 120.602 30.4052 120.542 30.3758C120.483 30.3463 120.453 30.2578 120.453 30.1546C120.453 30.0514 120.498 29.8597 120.572 29.6091C122.553 25.2893 124.474 21.8246 126.335 19.2446C126.544 18.9644 126.872 18.7433 127.318 18.5958C127.765 18.4484 128.212 18.3747 128.644 18.3747C128.897 18.3747 129.031 18.5664 129.031 18.9644C129.031 19.0824 128.986 19.2298 128.912 19.4067C128.837 19.5984 128.629 19.8933 128.301 20.3208C127.974 20.7484 127.586 21.2349 127.14 21.7657C126.693 22.2964 126.44 22.6208 126.38 22.7092C127.78 21.2791 129.031 20.2176 130.163 19.5099C131.295 18.817 132.099 18.4632 132.605 18.4632C133.111 18.4632 133.499 18.6106 133.767 18.8907C134.035 19.1708 134.169 19.4804 134.169 19.8048C134.169 20.1292 134.139 20.4093 134.094 20.6157C134.05 20.8368 133.96 21.058 133.841 21.2939C133.722 21.5298 133.618 21.7362 133.528 21.8984C133.439 22.0605 133.29 22.2817 133.097 22.5471C132.888 22.8124 132.754 23.0041 132.68 23.1073C132.605 23.2105 132.441 23.4022 132.203 23.6823C131.965 23.9624 131.831 24.1246 131.816 24.1541C132.099 23.874 132.501 23.4611 133.007 22.9009C133.514 22.3407 133.945 21.8836 134.303 21.515C134.66 21.1464 135.092 20.7189 135.628 20.2471C136.164 19.7753 136.656 19.392 137.103 19.1119C138.205 18.4337 139.322 18.0798 140.453 18.0798C140.841 18.0798 141.168 18.1978 141.436 18.4484C141.704 18.6991 141.838 18.9792 141.838 19.3183C141.838 19.6574 141.421 20.4683 140.602 21.7362C139.783 23.0041 138.949 24.2868 138.13 25.5694C137.311 26.8521 136.894 27.663 136.894 28.0021C136.894 28.4591 136.983 28.7393 137.147 28.8277C137.326 28.9162 137.534 28.9457 137.773 28.9309C138.011 28.9162 138.368 28.754 138.8 28.4591C139.247 28.1643 139.634 27.8694 139.977 27.545C140.543 27.0438 141.049 26.5572 141.54 26.0855C141.645 25.997 141.749 25.9528 141.883 25.9528C142.077 25.9528 142.196 26.1002 142.24 26.3951C142.285 26.6899 142.3 26.9848 142.3 27.3091C142.3 27.6335 142.27 27.8399 142.211 27.9579C141.913 28.5181 141.258 29.211 140.26 30.0367C139.247 30.8475 138.279 31.2604 137.356 31.2604C137.237 31.2604 137.162 31.2604 137.117 31.2456C136.075 31.1424 135.345 30.8623 134.943 30.3905C134.541 29.9187 134.348 29.3585 134.348 28.7245C134.348 28.0905 134.571 27.2944 135.018 26.3803C135.464 25.4662 135.941 24.6259 136.477 23.8887C137.013 23.1515 137.49 22.4733 137.937 21.8689C138.383 21.2644 138.607 20.94 138.607 20.8958C138.607 20.8516 138.562 20.8221 138.488 20.8221C138.175 20.8221 137.475 21.3234 136.373 22.3407C134.511 24.0656 132.903 25.7316 131.548 27.3239C131.19 27.7515 130.342 28.813 129.016 30.5379C128.867 30.7443 128.614 30.8475 128.286 30.8475C127.959 30.8475 127.616 30.7886 127.259 30.6559C126.901 30.5232 126.723 30.361 126.723 30.1694C126.723 30.0662 127.527 28.6508 129.15 25.9233C130.773 23.1958 131.578 21.7067 131.578 21.4708C131.578 21.2202 131.429 21.1022 131.131 21.1022C130.833 21.1022 130.207 21.5445 129.269 22.4291C126.693 24.8618 124.697 27.2944 123.283 29.6976C123.193 29.845 123.015 30.0662 122.746 30.361C122.478 30.6559 122.24 30.7738 122.151 30.7738Z" fill="#B1B1B1"/>
<path id="Vector_10" d="M151.683 19.3775C151.683 20.0409 151.414 20.6306 150.863 21.1319C150.312 21.6332 149.702 21.8838 149.002 21.8838C148.779 21.8838 148.63 21.8249 148.555 21.7217C148.481 21.6185 148.451 21.471 148.451 21.3088C148.451 21.1467 148.466 20.9697 148.51 20.8076C148.138 20.9255 147.736 21.1172 147.289 21.3678C146.843 21.6185 146.292 21.987 145.636 22.4883C144.981 22.9896 144.653 23.3434 144.653 23.5941C144.653 23.6678 144.773 23.712 145.011 23.712C145.249 23.712 145.621 23.6235 146.113 23.4614C146.604 23.2992 146.962 23.2107 147.155 23.2107C147.349 23.2107 147.483 23.2255 147.542 23.2402C147.676 23.3139 147.811 23.4614 147.974 23.6973C148.123 23.9332 148.198 24.1248 148.198 24.2575C148.198 24.3902 148.064 24.5671 147.796 24.7883C147.528 25.0094 147.23 25.1716 146.902 25.2895C146.56 25.4075 146.336 25.4959 146.232 25.5549C144.087 26.7491 143.015 27.56 143.015 28.0023C143.015 28.7837 143.685 29.1818 145.041 29.1818C145.904 29.1818 146.783 28.9164 147.647 28.3709C148.391 27.9138 149.061 27.4421 149.657 26.9555C150.253 26.4837 150.625 26.1889 150.789 26.0709C150.953 25.953 151.072 25.9088 151.146 25.9088C151.414 25.9088 151.548 26.2036 151.548 26.7934C151.548 27.3831 151.519 27.7664 151.444 27.9433C151.37 28.135 151.176 28.3561 150.834 28.6363C148.659 30.3907 146.589 31.2753 144.653 31.2753C143.611 31.2753 142.792 31.1279 142.166 30.8478C141.02 30.3318 140.454 29.5504 140.454 28.4888C140.454 27.103 141.422 26.0414 143.373 25.3338C142.985 25.1568 142.732 24.9504 142.628 24.6703C142.509 24.4049 142.464 23.9774 142.464 23.3876C142.464 22.7979 142.747 22.1787 143.298 21.5153C143.849 20.8518 144.534 20.3063 145.338 19.8935C147.125 18.9352 148.734 18.4634 150.134 18.4634C150.476 18.4634 150.804 18.5371 151.161 18.6993C151.519 18.8614 151.683 19.0826 151.683 19.3775Z" fill="#B1B1B1"/>
</g>
<g id="Group_2">
<path id="Vector_11" d="M0.719788 34.8579C4.63645 36.4796 8.62756 37.7328 12.6931 38.6911C16.7289 39.6937 20.8392 40.4013 24.9495 40.8436C27.0046 41.1238 29.0746 41.1532 31.1149 41.3449C33.1849 41.3597 35.24 41.5218 37.2951 41.4039L40.3778 41.3302C41.4054 41.3154 42.4329 41.1827 43.4605 41.1238C44.4881 41.0353 45.5156 40.9911 46.5283 40.8584L49.5812 40.4308C53.6766 39.9885 57.6528 39.045 61.6142 37.9097C65.6202 36.8187 69.4028 35.3739 73.4088 33.87C77.5042 32.381 81.9421 31.4079 86.4395 31.8797C88.6585 32.1598 90.8923 32.8675 92.7092 34.1649C94.5409 35.4476 95.8514 37.2758 96.6854 39.1924C95.4344 37.4822 93.8707 36.0815 92.0688 35.2117C90.2668 34.3418 88.2861 33.988 86.3204 34.047C82.3441 34.1059 78.4275 35.4181 74.7491 37.0694C71.0111 38.8975 66.9605 40.5488 62.88 41.9199C58.7697 43.2321 54.5254 44.2788 50.2216 44.8096C41.6585 45.9301 32.887 45.9448 24.4282 44.2493C20.1839 43.4827 16.0439 42.2885 12.0379 40.7699C8.06165 39.1924 4.17479 37.3495 0.719788 34.8579Z" fill="#B1B1B1"/>
</g>
<g id="Group_3">
<path id="Vector_12" d="M143.134 10.3104C139.813 8.90977 136.433 7.81876 133.007 6.96365C129.597 6.0643 126.142 5.43035 122.672 4.98805C120.945 4.72267 119.187 4.66369 117.46 4.45728C115.718 4.41305 113.99 4.23613 112.248 4.30985C111.384 4.32459 110.505 4.32459 109.642 4.30985C108.778 4.30985 107.899 4.39831 107.035 4.4278C106.172 4.48677 105.293 4.50152 104.429 4.58998L101.838 4.89958C98.3681 5.17971 95.0024 5.88739 91.6368 6.75724C88.2265 7.56812 84.9949 8.7181 81.5548 9.86808C78.0253 11.0328 74.198 11.7405 70.3558 11.2097C68.4645 10.9001 66.5583 10.2367 65.0541 9.0572C63.5202 7.89248 62.4778 6.3002 61.8374 4.6342C62.8948 6.09379 64.2053 7.288 65.7094 8.02517C67.2135 8.76233 68.8666 9.07194 70.5196 9.0572C73.8555 9.0572 77.1615 7.99568 80.2889 6.66878C83.4758 5.16496 86.9755 3.83807 90.4603 2.74706C93.9749 1.70028 97.6384 0.904145 101.302 0.520819C108.614 -0.245833 116.09 -0.0689138 123.253 1.61182C126.842 2.36373 130.342 3.51371 133.692 4.92907C137.058 6.37392 140.305 8.05465 143.134 10.3104Z" fill="#B1B1B1"/>
</g>
</g>
</svg>
