<svg width="123" height="50" viewBox="0 0 123 50" fill="none" xmlns="http://www.w3.org/2000/svg">
<g id="05">
<g id="Group">
<path id="Vector" d="M0.682495 30.6494V0.484619H18.6277V30.6347H0.682495V30.6494ZM16.4534 23.6316L16.9151 20.2996L15.2471 20.1375L14.7408 22.7028C13.6983 23.2188 12.4176 23.4695 10.8837 23.4695C8.79878 23.4695 7.14573 22.8207 5.93945 21.5086C4.71829 20.1964 4.1226 18.4715 4.1226 16.3189C4.1226 14.2254 4.71829 12.5004 5.89478 11.144C7.07127 9.78765 8.6201 9.10946 10.5412 9.10946C11.5241 9.10946 12.358 9.22741 13.0282 9.44855C13.6983 9.66971 14.3089 9.96457 14.8897 10.3479L15.3812 12.8837L17.0789 12.7216L16.5874 9.38958C15.8726 8.78511 15.0237 8.29858 14.0408 7.91525C13.0579 7.54667 11.8368 7.355 10.3923 7.355C8.67966 7.355 7.20532 7.76782 5.96927 8.60819C4.73321 9.44856 3.76521 10.5543 3.08017 11.9254C2.39513 13.3113 2.0526 14.8004 2.0526 16.3927C2.0526 18.9138 2.84188 21.0221 4.42046 22.7028C5.99904 24.3835 8.05416 25.2239 10.6007 25.2239C13.1026 25.2239 15.0535 24.6931 16.4534 23.6316Z" fill="#B1B1B1"/>
<path id="Vector_2" d="M24.7187 30.6494V0.484619H32.4329V30.6347H24.7187V30.6494ZM25.5377 24.9585H31.6287V23.44H29.5289V6.6031H25.508V8.12166H27.6376V23.44H25.5377V24.9585Z" fill="#B1B1B1"/>
<path id="Vector_3" d="M38.5239 30.6494V0.484619H52.0758V30.6347H38.5239V30.6494ZM40.9811 13.9895L40.5492 16.7318L42.1129 16.9234L42.5746 14.8741C43.2447 14.5497 44.0042 14.3876 44.8977 14.3876C45.97 14.3876 46.6997 14.6529 47.072 15.1837C47.4443 15.7145 47.623 16.4074 47.623 17.2625V18.324C47.2954 18.2945 46.9529 18.2651 46.5806 18.2503C46.2083 18.2356 45.8509 18.2208 45.4935 18.2208C44.1532 18.2208 42.8724 18.4567 41.681 18.9285C40.4896 19.4003 39.894 20.3881 39.894 21.8772C39.894 23.1451 40.2961 24.015 41.1151 24.4867C41.9342 24.9733 42.7384 25.2092 43.5277 25.2092C44.4957 25.2092 45.3296 24.9585 46.0147 24.4573C46.6997 23.956 47.2358 23.3957 47.623 22.747V22.806C47.6528 24.413 48.3826 25.2092 49.8122 25.2092C50.3632 25.2092 50.8844 25.0765 51.3759 24.8111L51.3461 23.5874C51.1078 23.6906 50.8398 23.7496 50.5419 23.7496C49.8569 23.7496 49.5143 23.322 49.5143 22.4669V16.8202C49.5143 14.1664 48.0847 12.8395 45.2254 12.8395C44.4361 12.8395 43.6915 12.928 42.9915 13.1049C42.2767 13.2966 41.6065 13.5914 40.9811 13.9895ZM47.6081 20.506C47.5337 21.4791 47.1316 22.2605 46.4019 22.8207C45.6722 23.3957 44.8977 23.6759 44.0638 23.6759C43.5426 23.6759 43.0362 23.5284 42.5597 23.2483C42.0683 22.9682 41.8299 22.4374 41.8299 21.6708C41.8299 20.7419 42.2023 20.1522 42.9171 19.8721C43.6468 19.592 44.451 19.4593 45.3594 19.4593C45.7615 19.4593 46.1487 19.474 46.521 19.5182C46.8933 19.5477 47.2656 19.5772 47.5932 19.592V20.506H47.6081Z" fill="#B1B1B1"/>
<path id="Vector_4" d="M58.1816 30.6494V0.484619H70.4975V30.6347H58.1816V30.6494ZM69.2019 21.5233C69.2019 20.5798 68.9487 19.8868 68.4423 19.4298C67.936 18.9727 67.3254 18.6631 66.5808 18.4862C65.8362 18.3093 65.1065 18.1619 64.3768 18.0439C63.6471 17.926 63.0216 17.7343 62.5153 17.4837C62.0089 17.233 61.7557 16.7907 61.7557 16.1568C61.7557 15.5523 61.994 15.11 62.4854 14.8151C62.9769 14.5203 63.5875 14.3876 64.347 14.3876C65.2256 14.3876 66.0447 14.5792 66.8042 14.9773L67.1021 16.8939L68.6658 16.7023L68.3679 13.9305C67.8616 13.6209 67.251 13.3703 66.5213 13.1639C65.7916 12.9575 65.0171 12.8395 64.1832 12.8395C63.0812 12.8395 62.0685 13.1049 61.1303 13.6209C60.1921 14.1369 59.7304 15.0215 59.7304 16.2895C59.7304 17.2183 59.9836 17.8965 60.4899 18.324C60.9962 18.7663 61.6217 19.0612 62.3812 19.2381C63.1407 19.415 63.8853 19.5625 64.6299 19.6952C65.3745 19.8131 66 20.0195 66.5064 20.2849C67.0127 20.5503 67.2659 21.0073 67.2659 21.6708C67.2659 22.349 66.9382 22.8502 66.2829 23.1746C65.6277 23.4989 64.8831 23.6611 64.0342 23.6611C63.0811 23.6611 62.1876 23.4695 61.3685 23.0714L61.443 21.4938L59.9389 21.3317L59.5666 24.0297C60.0878 24.3688 60.7728 24.6489 61.6068 24.8701C62.4408 25.0912 63.2747 25.2092 64.1236 25.2092C65.5681 25.2092 66.7745 24.8848 67.7424 24.2214C68.7104 23.5874 69.2019 22.6733 69.2019 21.5233Z" fill="#B1B1B1"/>
<path id="Vector_5" d="M76.5881 30.6494V0.484619H88.904V30.6347H76.5881V30.6494ZM87.6083 21.5233C87.6083 20.5798 87.3552 19.8868 86.8488 19.4298C86.3425 18.9727 85.7319 18.6631 84.9873 18.4862C84.2427 18.3093 83.513 18.1619 82.7833 18.0439C82.0535 17.926 81.4281 17.7343 80.9217 17.4837C80.4154 17.233 80.1622 16.7907 80.1622 16.1568C80.1622 15.5523 80.4005 15.11 80.8919 14.8151C81.3834 14.5203 81.9939 14.3876 82.7535 14.3876C83.6321 14.3876 84.4512 14.5792 85.2107 14.9773L85.5086 16.8939L87.0722 16.7023L86.7744 13.9305C86.268 13.6209 85.6575 13.3703 84.9278 13.1639C84.198 12.9575 83.4236 12.8395 82.5897 12.8395C81.4876 12.8395 80.475 13.1049 79.5368 13.6209C78.5986 14.1369 78.1369 15.0215 78.1369 16.2895C78.1369 17.2183 78.3901 17.8965 78.8964 18.324C79.4027 18.7663 80.0283 19.0612 80.7878 19.2381C81.5473 19.415 82.2918 19.5625 83.0364 19.6952C83.781 19.8131 84.4065 20.0195 84.9128 20.2849C85.4192 20.5503 85.6724 21.0073 85.6724 21.6708C85.6724 22.349 85.3448 22.8502 84.6895 23.1746C84.0343 23.4989 83.2896 23.6611 82.4408 23.6611C81.4877 23.6611 80.5941 23.4695 79.775 23.0714L79.8495 21.4938L78.3454 21.3317L77.9731 24.0297C78.4943 24.3688 79.1794 24.6489 80.0133 24.8701C80.8473 25.0912 81.6813 25.2092 82.5301 25.2092C83.9747 25.2092 85.1809 24.8848 86.1489 24.2214C87.1169 23.5874 87.6083 22.6733 87.6083 21.5233Z" fill="#B1B1B1"/>
<path id="Vector_6" d="M94.9952 30.6494V0.484619H103.112V30.6347H94.9952V30.6494ZM96.1866 24.9585H102.278V23.44H100.178V13.0902H96.142V14.6087H98.3013V23.44H96.2015V24.9585H96.1866ZM98.0929 7.5909V10.0235H100.148V7.5909H98.0929Z" fill="#B1B1B1"/>
<path id="Vector_7" d="M109.202 30.6494V0.484619H122.174V30.6347H109.202V30.6494ZM121.012 20.9631L119.389 20.6092C119.031 22.6143 117.944 23.6169 116.157 23.6169C114.966 23.6169 114.057 23.2188 113.432 22.4227C112.806 21.6265 112.494 20.506 112.494 19.0907C112.494 17.808 112.776 16.717 113.328 15.8029C113.879 14.8888 114.802 14.4465 116.083 14.4465C117.065 14.4465 117.929 14.6677 118.644 15.11L119.106 17.1151L120.669 16.9234L120.208 14.0632C119.597 13.6062 118.957 13.2818 118.287 13.1049C117.617 12.928 116.887 12.8395 116.097 12.8395C114.236 12.8395 112.821 13.4882 111.898 14.7856C110.96 16.083 110.498 17.5574 110.498 19.1939C110.498 21.0958 110.989 22.5848 111.987 23.6316C112.97 24.6931 114.296 25.2239 115.949 25.2239C117.602 25.2239 118.823 24.7669 119.597 23.8675C120.372 22.9534 120.848 21.9951 121.012 20.9631Z" fill="#B1B1B1"/>
</g>
<g id="Group_2">
<path id="Vector_8" d="M8.44145 47.1175C8.09893 47.7368 7.59257 48.2233 6.93732 48.5624C6.26717 48.9015 5.47787 49.0784 4.55455 49.0784H1.88882V40.7632H4.55455C5.47787 40.7632 6.28206 40.9254 6.93732 41.2645C7.59257 41.6036 8.09893 42.0753 8.44145 42.7093C8.78397 43.3433 8.94778 44.0657 8.94778 44.9208C8.94778 45.7612 8.78397 46.4983 8.44145 47.1175ZM6.96708 47.2797C7.54788 46.7195 7.83086 45.9381 7.83086 44.9208C7.83086 43.9035 7.54788 43.1221 6.96708 42.5619C6.38629 42.0016 5.55232 41.7215 4.45029 41.7215H2.94621V48.1201H4.45029C5.55232 48.1201 6.38629 47.84 6.96708 47.2797Z" fill="#B1B1B1"/>
<path id="Vector_9" d="M14.4729 41.633V44.4785H17.6598V45.3041H14.4729V48.2086H18.0172V49.0784H13.3857V40.7632H18.0172V41.633H14.4729Z" fill="#B1B1B1"/>
<path id="Vector_10" d="M27.4292 48.017C27.2356 48.3561 26.9526 48.6362 26.5654 48.8426C26.1782 49.049 25.7016 49.167 25.1208 49.167C24.5698 49.167 24.0635 49.0638 23.6316 48.8721C23.1997 48.6657 22.8572 48.4003 22.5892 48.0465C22.336 47.6926 22.1871 47.2946 22.1424 46.8523H23.304C23.3338 47.0881 23.4082 47.324 23.5423 47.5452C23.6763 47.7663 23.8848 47.958 24.1379 48.1054C24.3911 48.2529 24.7039 48.3266 25.0762 48.3266C25.5527 48.3266 25.9251 48.2086 26.1782 47.9433C26.4314 47.6779 26.5654 47.3683 26.5654 46.9702C26.5654 46.6311 26.476 46.351 26.2973 46.1446C26.1186 45.9382 25.8952 45.7612 25.6421 45.6433C25.3889 45.5254 25.0166 45.3927 24.5698 45.2452C24.0337 45.0683 23.6168 44.9061 23.2891 44.7587C22.9615 44.6113 22.6934 44.3754 22.47 44.0658C22.2466 43.7562 22.1275 43.3581 22.1275 42.8568C22.1275 42.4293 22.2318 42.0459 22.4403 41.7068C22.6487 41.3825 22.9466 41.1171 23.3487 40.9402C23.7359 40.7633 24.2124 40.6748 24.7337 40.6748C25.5527 40.6748 26.2229 40.8665 26.6994 41.2645C27.1909 41.6626 27.4589 42.1639 27.5483 42.7831H26.3867C26.3271 42.4587 26.1484 42.1639 25.8804 41.9132C25.5974 41.6626 25.2251 41.5299 24.7485 41.5299C24.3167 41.5299 23.9593 41.6479 23.7061 41.869C23.438 42.0902 23.3189 42.4145 23.3189 42.8126C23.3189 43.1369 23.4083 43.4023 23.5721 43.594C23.7508 43.8004 23.9593 43.9478 24.2124 44.0658C24.4656 44.1837 24.823 44.3017 25.2549 44.4491C25.791 44.626 26.2229 44.7882 26.5654 44.9504C26.893 45.1125 27.176 45.3484 27.3994 45.658C27.6227 45.9677 27.7419 46.3952 27.7419 46.926C27.7121 47.3093 27.6228 47.6779 27.4292 48.017Z" fill="#B1B1B1"/>
<path id="Vector_11" d="M33.237 40.7632V49.0784H32.1498V40.7632H33.237Z" fill="#B1B1B1"/>
<path id="Vector_12" d="M44.2275 41.3972C44.8977 41.8837 45.3445 42.5324 45.5678 43.3581H44.4212C44.2276 42.8568 43.885 42.444 43.4234 42.1491C42.9617 41.8395 42.4107 41.6921 41.7703 41.6921C41.2044 41.6921 40.6832 41.8248 40.2364 42.0901C39.7896 42.3555 39.4323 42.7241 39.1642 43.2106C38.911 43.6972 38.777 44.2722 38.777 44.9356C38.777 45.6138 38.911 46.2035 39.1642 46.6901C39.4174 47.1766 39.7896 47.5599 40.2513 47.8253C40.713 48.0907 41.2491 48.2234 41.8597 48.2234C42.3809 48.2234 42.8425 48.1054 43.2744 47.899C43.7063 47.6779 44.0488 47.3535 44.3318 46.9407C44.6147 46.5279 44.7637 46.0266 44.8232 45.4664H41.5171V44.6702H45.7316V45.658C45.6572 46.3215 45.4487 46.9112 45.1062 47.4567C44.7637 48.0022 44.302 48.415 43.7212 48.7246C43.1404 49.0342 42.4851 49.1964 41.7405 49.1964C40.9363 49.1964 40.2215 49.0195 39.596 48.6657C38.9706 48.3118 38.494 47.8106 38.1515 47.1618C37.809 46.5279 37.6302 45.7907 37.6302 44.9651C37.6302 44.1395 37.809 43.4023 38.1515 42.7683C38.494 42.1344 38.9855 41.6184 39.596 41.2645C40.2066 40.9107 40.9214 40.719 41.7256 40.719C42.7383 40.6895 43.5574 40.9254 44.2275 41.3972Z" fill="#B1B1B1"/>
<path id="Vector_13" d="M56.7218 49.0784H55.6347L51.2713 42.5029V49.0784H50.1842V40.7632H51.2713L55.6347 47.3387V40.7632H56.7218V49.0784Z" fill="#B1B1B1"/>
<path id="Vector_14" d="M72.3885 48.017C72.1949 48.3561 71.912 48.6362 71.5248 48.8426C71.1376 49.049 70.6611 49.167 70.0803 49.167C69.5293 49.167 69.0229 49.0638 68.591 48.8721C68.1592 48.6657 67.8166 48.4003 67.5486 48.0465C67.2954 47.6926 67.1465 47.2946 67.1018 46.8523H68.2634C68.2932 47.0881 68.3677 47.324 68.5017 47.5452C68.6357 47.7663 68.8442 47.958 69.0973 48.1054C69.3505 48.2529 69.6632 48.3266 70.0355 48.3266C70.5121 48.3266 70.8844 48.2086 71.1376 47.9433C71.3907 47.6779 71.5248 47.3683 71.5248 46.9702C71.5248 46.6311 71.4354 46.351 71.2567 46.1446C71.078 45.9382 70.8546 45.7612 70.6015 45.6433C70.3483 45.5254 69.976 45.3927 69.5293 45.2452C68.9931 45.0683 68.5761 44.9061 68.2485 44.7587C67.9208 44.6113 67.6528 44.3754 67.4294 44.0658C67.206 43.7562 67.0869 43.3581 67.0869 42.8568C67.0869 42.4293 67.1911 42.0459 67.3996 41.7068C67.6081 41.3825 67.906 41.1171 68.3081 40.9402C68.6953 40.7633 69.1718 40.6748 69.6931 40.6748C70.5121 40.6748 71.1823 40.8665 71.6588 41.2645C72.1503 41.6626 72.4184 42.1639 72.5077 42.7831H71.3461C71.2865 42.4587 71.1078 42.1639 70.8397 41.9132C70.5567 41.6626 70.1845 41.5299 69.708 41.5299C69.2761 41.5299 68.9187 41.6479 68.6655 41.869C68.3974 42.0902 68.2783 42.4145 68.2783 42.8126C68.2783 43.1369 68.3676 43.4023 68.5314 43.594C68.7101 43.8004 68.9186 43.9478 69.1718 44.0658C69.4249 44.1837 69.7824 44.3017 70.2142 44.4491C70.7504 44.626 71.1823 44.7882 71.5248 44.9504C71.8524 45.1125 72.1354 45.3484 72.3587 45.658C72.5821 45.9677 72.7012 46.3952 72.7012 46.926C72.6714 47.3093 72.5821 47.6779 72.3885 48.017Z" fill="#B1B1B1"/>
<path id="Vector_15" d="M82.2621 40.7632V41.633H79.8942V49.0784H78.7922V41.633H76.4243V40.7632H82.2621Z" fill="#B1B1B1"/>
<path id="Vector_16" d="M87.3258 40.7632V45.7464C87.3258 46.5573 87.5045 47.1618 87.8769 47.5599C88.2492 47.9432 88.7406 48.1496 89.3959 48.1496C90.0363 48.1496 90.5277 47.9579 90.8851 47.5599C91.2425 47.1618 91.4212 46.572 91.4212 45.7612V40.7779H92.5084V45.7612C92.5084 46.8964 92.2254 47.7515 91.6595 48.3118C91.0936 48.8868 90.3341 49.1669 89.381 49.1669C88.4428 49.1669 87.6833 48.8868 87.1174 48.3118C86.5515 47.7368 86.2686 46.8964 86.2686 45.7612V40.7779H87.3258V40.7632Z" fill="#B1B1B1"/>
<path id="Vector_17" d="M103.722 47.1175C103.379 47.7368 102.873 48.2233 102.218 48.5624C101.548 48.9015 100.758 49.0784 99.835 49.0784H97.1693V40.7632H99.835C100.758 40.7632 101.562 40.9254 102.218 41.2645C102.873 41.6036 103.379 42.0753 103.722 42.7093C104.064 43.3433 104.228 44.0657 104.228 44.9208C104.228 45.7612 104.064 46.4983 103.722 47.1175ZM102.262 47.2797C102.843 46.7195 103.126 45.9381 103.126 44.9208C103.126 43.9035 102.843 43.1221 102.262 42.5619C101.682 42.0016 100.848 41.7215 99.7456 41.7215H98.2415V48.1201H99.7456C100.833 48.1201 101.682 47.84 102.262 47.2797Z" fill="#B1B1B1"/>
<path id="Vector_18" d="M109.768 40.7632V49.0784H108.681V40.7632H109.768Z" fill="#B1B1B1"/>
<path id="Vector_19" d="M120.431 41.2057C121.056 41.5742 121.548 42.0755 121.905 42.7242C122.263 43.3729 122.441 44.1101 122.441 44.921C122.441 45.7319 122.263 46.469 121.905 47.1177C121.548 47.7664 121.056 48.2677 120.431 48.6363C119.805 49.0049 119.105 49.1818 118.331 49.1818C117.557 49.1818 116.842 49.0049 116.216 48.6363C115.591 48.2677 115.085 47.7664 114.727 47.1177C114.37 46.469 114.191 45.7319 114.191 44.921C114.191 44.1101 114.37 43.3729 114.727 42.7242C115.085 42.0755 115.576 41.5742 116.216 41.2057C116.857 40.8371 117.557 40.6602 118.331 40.6602C119.105 40.6602 119.805 40.8371 120.431 41.2057ZM116.767 42.0608C116.306 42.3261 115.948 42.6947 115.695 43.196C115.442 43.6825 115.308 44.2575 115.308 44.921C115.308 45.5697 115.442 46.1447 115.695 46.6459C115.948 47.1472 116.306 47.5158 116.767 47.7812C117.229 48.0466 117.735 48.1792 118.316 48.1792C118.882 48.1792 119.403 48.0466 119.865 47.7812C120.327 47.5158 120.684 47.1325 120.937 46.6459C121.19 46.1594 121.324 45.5844 121.324 44.9357C121.324 44.2723 121.19 43.6973 120.937 43.2107C120.684 42.7242 120.327 42.3409 119.865 42.0755C119.403 41.8101 118.897 41.6774 118.316 41.6774C117.75 41.6627 117.229 41.7954 116.767 42.0608Z" fill="#B1B1B1"/>
</g>
</g>
</svg>
