<svg width="64" height="55" viewBox="0 0 64 55" fill="none" xmlns="http://www.w3.org/2000/svg">
<g id="Icon">
<path id="Rectangle 414" d="M1.5 5C1.5 3.067 3.067 1.5 5 1.5H27.8358C29.7688 1.5 31.3358 3.067 31.3358 5V53.5H5C3.067 53.5 1.5 51.933 1.5 50V5Z" stroke="#BB9F64" stroke-width="3"/>
<path id="Rectangle 415" d="M31.8731 27.9849C31.8731 26.0519 33.4401 24.4849 35.3731 24.4849H58.209C60.142 24.4849 61.709 26.0519 61.709 27.9849V49.9998C61.709 51.9328 60.142 53.4998 58.209 53.4998H31.8731V27.9849Z" stroke="#BB9F64" stroke-width="3"/>
<g id="Vector">
<path d="M6.56717 10.8506C6.56717 10.2983 7.01488 9.85059 7.56717 9.85059H12.9552C13.5075 9.85059 13.9552 10.2983 13.9552 10.8506V12.9551C13.9552 13.5073 13.5075 13.9551 12.9552 13.9551H7.56717C7.01488 13.9551 6.56717 13.5073 6.56717 12.9551V10.8506Z" fill="#BB9F64"/>
<path d="M36.9403 32.1939C36.9403 31.6416 37.388 31.1939 37.9403 31.1939H43.3284C43.8806 31.1939 44.3284 31.6416 44.3284 32.1939V34.2983C44.3284 34.8506 43.8806 35.2983 43.3284 35.2983H37.9403C37.388 35.2983 36.9403 34.8506 36.9403 34.2983V32.1939Z" fill="#BB9F64"/>
<path d="M6.56717 21.5222C6.56717 20.9699 7.01488 20.5222 7.56717 20.5222H12.9552C13.5075 20.5222 13.9552 20.9699 13.9552 21.5222V23.6267C13.9552 24.179 13.5075 24.6267 12.9552 24.6267H7.56717C7.01488 24.6267 6.56717 24.179 6.56717 23.6267V21.5222Z" fill="#BB9F64"/>
<path d="M36.9403 42.0446C36.9403 41.4923 37.388 41.0446 37.9403 41.0446H43.3284C43.8806 41.0446 44.3284 41.4923 44.3284 42.0446V44.1491C44.3284 44.7014 43.8806 45.1491 43.3284 45.1491H37.9403C37.388 45.1491 36.9403 44.7014 36.9403 44.1491V42.0446Z" fill="#BB9F64"/>
<path d="M6.56717 32.1939C6.56717 31.6416 7.01488 31.1939 7.56717 31.1939H12.9552C13.5075 31.1939 13.9552 31.6416 13.9552 32.1939V34.2983C13.9552 34.8506 13.5075 35.2983 12.9552 35.2983H7.56717C7.01488 35.2983 6.56717 34.8506 6.56717 34.2983V32.1939Z" fill="#BB9F64"/>
<path d="M6.56717 42.8655C6.56717 42.3132 7.01488 41.8655 7.56717 41.8655H12.9552C13.5075 41.8655 13.9552 42.3132 13.9552 42.8655V44.97C13.9552 45.5223 13.5075 45.97 12.9552 45.97H7.56717C7.01488 45.97 6.56717 45.5223 6.56717 44.97V42.8655Z" fill="#BB9F64"/>
<path d="M18.8806 10.8506C18.8806 10.2983 19.3283 9.85059 19.8806 9.85059H25.2687C25.8209 9.85059 26.2687 10.2983 26.2687 10.8506V12.9551C26.2687 13.5073 25.8209 13.9551 25.2687 13.9551H19.8806C19.3283 13.9551 18.8806 13.5073 18.8806 12.9551V10.8506Z" fill="#BB9F64"/>
<path d="M49.2537 32.1939C49.2537 31.6416 49.7015 31.1939 50.2537 31.1939H55.6418C56.1941 31.1939 56.6418 31.6416 56.6418 32.1939V34.2983C56.6418 34.8506 56.1941 35.2983 55.6418 35.2983H50.2537C49.7015 35.2983 49.2537 34.8506 49.2537 34.2983V32.1939Z" fill="#BB9F64"/>
<path d="M18.8806 21.5222C18.8806 20.9699 19.3283 20.5222 19.8806 20.5222H25.2687C25.8209 20.5222 26.2687 20.9699 26.2687 21.5222V23.6267C26.2687 24.179 25.8209 24.6267 25.2687 24.6267H19.8806C19.3283 24.6267 18.8806 24.179 18.8806 23.6267V21.5222Z" fill="#BB9F64"/>
<path d="M49.2537 42.0446C49.2537 41.4923 49.7015 41.0446 50.2537 41.0446H55.6418C56.1941 41.0446 56.6418 41.4923 56.6418 42.0446V44.1491C56.6418 44.7014 56.1941 45.1491 55.6418 45.1491H50.2537C49.7015 45.1491 49.2537 44.7014 49.2537 44.1491V42.0446Z" fill="#BB9F64"/>
<path d="M18.8806 32.1939C18.8806 31.6416 19.3283 31.1939 19.8806 31.1939H25.2687C25.8209 31.1939 26.2687 31.6416 26.2687 32.1939V34.2983C26.2687 34.8506 25.8209 35.2983 25.2687 35.2983H19.8806C19.3283 35.2983 18.8806 34.8506 18.8806 34.2983V32.1939Z" fill="#BB9F64"/>
<path d="M18.8806 42.8655C18.8806 42.3132 19.3283 41.8655 19.8806 41.8655H25.2687C25.8209 41.8655 26.2687 42.3132 26.2687 42.8655V44.97C26.2687 45.5223 25.8209 45.97 25.2687 45.97H19.8806C19.3283 45.97 18.8806 45.5223 18.8806 44.97V42.8655Z" fill="#BB9F64"/>
</g>
</g>
</svg>
