<svg width="58" height="57" viewBox="0 0 58 57" fill="none" xmlns="http://www.w3.org/2000/svg">
<g id="Icon">
<path id="Vector 15" d="M51.931 5.36692L48.0862 13.8522C47.9099 14.2412 47.8188 14.6633 47.8188 15.0904V52.9391C47.8188 54.0437 48.7142 54.9391 49.8188 54.9391H54.9541C56.0587 54.9391 56.9541 54.0437 56.9541 52.9391V15.0904C56.9541 14.6633 56.8629 14.2412 56.6867 13.8522L52.8419 5.36692C52.6645 4.9754 52.1084 4.9754 51.931 5.36692Z" stroke="#D1B06B" stroke-width="2"/>
<path id="Vector 16" d="M47.8188 15.0903H52.9574H56.9541" stroke="#D1B06B" stroke-width="2"/>
<rect id="Rectangle 377" x="6.83414" y="25.144" width="28.0038" height="2.33365" rx="1.16683" fill="#D1B06B"/>
<rect id="Rectangle 381" x="8.16779" y="8.97559" width="10.1678" height="7.83413" rx="1.5" stroke="#D1B06B" stroke-width="2"/>
<rect id="Rectangle 379" x="6.83414" y="36.8125" width="28.0038" height="2.33365" rx="1.16683" fill="#D1B06B"/>
<rect id="Rectangle 382" x="6.83414" y="42.6465" width="17.5024" height="2.33365" rx="1.16683" fill="#D1B06B"/>
<rect id="Rectangle 378" x="6.83414" y="30.9785" width="28.0038" height="2.33365" rx="1.16683" fill="#D1B06B"/>
<path id="Vector 17" d="M47.8188 49.8306H56.9541" stroke="#D1B06B" stroke-width="2"/>
<path id="Vector 7" d="M1 8.80762V48.1925C1 52.0585 4.13401 55.1925 8 55.1925H34.2603C38.1263 55.1925 41.2603 52.0585 41.2603 48.1925V16.5358C41.2603 14.5484 40.4154 12.6546 38.9365 11.3269L30.3278 3.59866C29.0432 2.44548 27.3778 1.80762 25.6516 1.80762H8C4.13401 1.80762 1 4.94162 1 8.80762Z" stroke="#D1B06B" stroke-width="2"/>
<path id="Vector 8" d="M25.9808 2.0249V11.6966C25.9808 13.9058 27.7716 15.6966 29.9808 15.6966H40.2902" stroke="#D1B06B" stroke-width="2" stroke-linecap="round"/>
</g>
</svg>
