<svg width="60" height="43" viewBox="0 0 60 43" fill="none" xmlns="http://www.w3.org/2000/svg">
<g id="Icon">
<path id="Vector" d="M55.1472 37.1541C57.0036 37.1541 58.3571 35.2587 57.9163 33.2997C56.3251 26.2416 50.4564 21.0002 43.4616 21.0002C36.4667 21.0002 30.5946 26.2415 29.0069 33.3035C28.5661 35.2624 29.9196 37.1541 31.7759 37.1541H55.1472Z" fill="#1F2732" stroke="#D1B06B" stroke-width="3" stroke-miterlimit="10"/>
<path id="Vector_2" d="M28.2241 37.1541C30.0805 37.1541 31.434 35.2587 30.9931 33.2997C29.402 26.2416 23.5333 21.0002 16.5385 21.0002C9.5436 21.0002 3.6715 26.2415 2.0838 33.3035C1.64296 35.2624 2.99647 37.1541 4.85281 37.1541H28.2241Z" fill="#1F2732" stroke="#D1B06B" stroke-width="3" stroke-miterlimit="10"/>
<path id="Vector_3" d="M38.656 41.4616C40.0311 41.4616 41.0337 40.0717 40.7072 38.6351C39.5285 33.4591 35.1814 29.6155 30 29.6155C24.8186 29.6155 20.4689 33.4591 19.2928 38.6379C18.9663 40.0744 19.9689 41.4616 21.344 41.4616H38.656Z" fill="#1F2732" stroke="#D1B06B" stroke-width="3" stroke-miterlimit="10"/>
<path id="Vector_4" d="M50.0384 9.15396C50.0384 13.0837 46.8528 16.2693 42.9231 16.2693C38.9933 16.2693 35.8077 13.0837 35.8077 9.15396C35.8077 5.22424 38.9933 2.03857 42.9231 2.03857C46.8528 2.03857 50.0384 5.22424 50.0384 9.15396Z" stroke="#D1B06B" stroke-width="3" stroke-miterlimit="10"/>
<path id="Vector_5" d="M24.1923 9.15396C24.1923 13.0837 21.0066 16.2693 17.0769 16.2693C13.1472 16.2693 9.96155 13.0837 9.96155 9.15396C9.96155 5.22424 13.1472 2.03857 17.0769 2.03857C21.0066 2.03857 24.1923 5.22424 24.1923 9.15396Z" stroke="#D1B06B" stroke-width="3" stroke-miterlimit="10"/>
<path id="Vector_6" d="M34.9615 21.0001C34.9615 23.7403 32.7402 25.9617 30 25.9617C27.2598 25.9617 25.0385 23.7403 25.0385 21.0001C25.0385 18.2599 27.2598 16.0386 30 16.0386C32.7402 16.0386 34.9615 18.2599 34.9615 21.0001Z" stroke="#D1B06B" stroke-width="3" stroke-miterlimit="10"/>
</g>
</svg>
