<svg width="18" height="17" viewBox="0 0 18 17" fill="none" xmlns="http://www.w3.org/2000/svg">
<path id="Vector" d="M17.1802 12.8312C16.9821 12.6202 16.2827 11.9964 14.9971 11.171C13.7019 10.3385 12.7468 9.81934 12.4728 9.69829C12.4486 9.68758 12.422 9.68365 12.3958 9.68692C12.3696 9.6902 12.3448 9.70056 12.324 9.71688C11.8827 10.0611 11.1397 10.6933 11.0999 10.7274C10.8426 10.9479 10.8426 10.9479 10.632 10.8792C10.2616 10.7578 9.11103 10.1468 8.10846 9.14198C7.10588 8.13714 6.46343 6.95812 6.342 6.58814C6.27256 6.37715 6.27256 6.37715 6.49379 6.11987C6.52794 6.08003 7.16053 5.33702 7.50471 4.89608C7.52104 4.87531 7.53139 4.85049 7.53467 4.82428C7.53794 4.79807 7.53402 4.77147 7.52331 4.74732C7.40225 4.47296 6.88313 3.51821 6.05057 2.22308C5.22407 0.937808 4.60097 0.238443 4.38999 0.0403585C4.37062 0.0220881 4.34669 0.00937816 4.32071 0.00356797C4.29474 -0.00224222 4.26767 -0.000937497 4.24237 0.00734453C3.50485 0.260788 2.79326 0.584178 2.11731 0.973099C1.46478 1.35243 0.847 1.78862 0.271171 2.27658C0.25107 2.29367 0.236 2.31591 0.227577 2.34091C0.219154 2.36591 0.217695 2.39274 0.223357 2.41851C0.302668 2.78811 0.681762 4.33104 1.85813 6.46823C3.05841 8.64943 3.89022 9.76697 5.65288 11.5235C7.41553 13.2801 8.56838 14.162 10.7519 15.3623C12.8891 16.5386 14.4328 16.9181 14.8016 16.9967C14.8274 17.0023 14.8543 17.0008 14.8794 16.9924C14.9044 16.984 14.9267 16.9689 14.9439 16.9488C15.4318 16.373 15.8679 15.7553 16.247 15.1027C16.6359 14.4267 16.9593 13.7152 17.2128 12.9777C17.2209 12.9526 17.2222 12.9258 17.2164 12.9C17.2107 12.8742 17.1982 12.8505 17.1802 12.8312Z" fill="#CCAA60"/>
</svg>
